<?xml version="1.0" encoding="UTF-8" standalone="no"?>
<svg
   xmlns:dc="http://purl.org/dc/elements/1.1/"
   xmlns:cc="http://creativecommons.org/ns#"
   xmlns:rdf="http://www.w3.org/1999/02/22-rdf-syntax-ns#"
   xmlns:svg="http://www.w3.org/2000/svg"
   xmlns="http://www.w3.org/2000/svg"
   xmlns:sodipodi="http://sodipodi.sourceforge.net/DTD/sodipodi-0.dtd"
   xmlns:inkscape="http://www.inkscape.org/namespaces/inkscape"
   id="Lissajous_curve"
   version="1.1"
   width="297mm"
   height="210mm"
   sodipodi:docname="Lissajous.svg"
   inkscape:version="0.92.2 (5c3e80d, 2017-08-06)"
   inkscape:export-filename="C:\Users\alexp\Documents\Projekte\Arbeit\DeepLearning4VC\Project_CRT\Chapters\Deflection\Lissajous.png"
   inkscape:export-xdpi="250"
   inkscape:export-ydpi="250">
  <metadata
     id="metadata28">
    <rdf:RDF>
      <cc:Work
         rdf:about="">
        <dc:format>image/svg+xml</dc:format>
        <dc:type
           rdf:resource="http://purl.org/dc/dcmitype/StillImage" />
        <dc:title>Lissajous_1_1_1.svg</dc:title>
      </cc:Work>
    </rdf:RDF>
  </metadata>
  <defs
     id="defs26" />
  <sodipodi:namedview
     pagecolor="#ffffff"
     bordercolor="#666666"
     borderopacity="1"
     objecttolerance="10"
     gridtolerance="10"
     guidetolerance="10"
     inkscape:pageopacity="1"
     inkscape:pageshadow="2"
     inkscape:window-width="3360"
     inkscape:window-height="1975"
     id="namedview24"
     showgrid="false"
     inkscape:zoom="0.49166667"
     inkscape:cx="1015.6059"
     inkscape:cy="-552.25225"
     inkscape:window-x="1161"
     inkscape:window-y="-13"
     inkscape:window-maximized="1"
     inkscape:current-layer="Lissajous_curve"
     inkscape:measure-start="20.3452,95.3412"
     inkscape:measure-end="47.1444,95.347"
     units="mm" />
  <title
     id="title2">Lissajous_1_1_1.svg</title>
  <desc
     id="desc4">
     Lissajous-curves

     x(t) = sin(pi * 1 * 2 * t)
     y(t) = sin(pi * 1 * (2 * t - 1))

     f1/f2 = 1/1 	phi = 1

     plotted with several adapted cubic bezier-curves
     The plotcurves were calculated by some fancy code. The bezier-curve
     controlpoints are placed on tangents of the function-curve. They are
     furthermore positioned in a way to minimize the average quadratic distance
     between the bezier-curve and the function. This gives an accuracy, so that
     the deviation is in no point greater than 0.00001.

     about: http://commons.wikimedia.org/wiki/Image:Lissajous_1_1_1.svg
     source: http://commons.wikimedia.org/
     rights: GNU Free Documentation license,
             Creative Commons Attribution ShareAlike license
  </desc>
  <g
     id="box"
     style="fill:none;stroke:#000000;stroke-width:1px;stroke-linecap:square;stroke-linejoin:miter"
     transform="matrix(2.061488,0,0,2.061488,39.789212,130.61432)">
    <rect
       x="32.5"
       y="12.5"
       width="94"
       height="94"
       id="rect6" />
    <g
       transform="translate(33,12.5)"
       id="g12">
      <path
         d="M 0,9 H 3.5 M 0,28 H 3.5 M 0,47 H 3.5 M 0,66 H 3.5 M 0,85 h 3.5"
         id="path8"
         inkscape:connector-curvature="0" />
      <path
         d="M 93,9 H 89.5 M 93,28 H 89.5 M 93,47 H 89.5 M 93,66 H 89.5 M 93,85 h -3.5"
         id="path10"
         inkscape:connector-curvature="0" />
    </g>
    <g
       transform="translate(32.5,13)"
       id="g18">
      <path
         d="M 9,0 V 3.5 M 28,0 V 3.5 M 47,0 V 3.5 M 66,0 V 3.5 M 85,0 v 3.5"
         id="path14"
         inkscape:connector-curvature="0" />
      <path
         d="M 9,93 V 89.5 M 28,93 V 89.5 M 47,93 V 89.5 M 66,93 V 89.5 M 85,93 v -3.5"
         id="path16"
         inkscape:connector-curvature="0" />
    </g>
  </g>
  <g
     id="graph"
     transform="matrix(78.336543,0,0,-78.336543,203.67751,253.27284)"
     style="fill:none;stroke:#ff0000;stroke-width:0.02631579px;stroke-linecap:round;stroke-linejoin:round">
    <path
       id="curve"
       d="M -1,1 1,-1"
       inkscape:connector-curvature="0" />
  </g>
  <g
     id="g68"
     transform="matrix(2.061488,0,0,2.061488,233.52719,130.57239)">
    <g
       style="fill:none;stroke:#000000;stroke-width:1px;stroke-linecap:square;stroke-linejoin:miter"
       id="box-4">
      <rect
         id="rect34"
         height="94"
         width="94"
         y="12.5"
         x="32.5" />
      <g
         id="g40"
         transform="translate(33,12.5)">
        <path
           id="path36"
           d="M 0,9 H 3.5 M 0,28 H 3.5 M 0,47 H 3.5 M 0,66 H 3.5 M 0,85 h 3.5"
           inkscape:connector-curvature="0" />
        <path
           id="path38"
           d="M 93,9 H 89.5 M 93,28 H 89.5 M 93,47 H 89.5 M 93,66 H 89.5 M 93,85 h -3.5"
           inkscape:connector-curvature="0" />
      </g>
      <g
         id="g46"
         transform="translate(32.5,13)">
        <path
           id="path42"
           d="M 9,0 V 3.5 M 28,0 V 3.5 M 47,0 V 3.5 M 66,0 V 3.5 M 85,0 v 3.5"
           inkscape:connector-curvature="0" />
        <path
           id="path44"
           d="M 9,93 V 89.5 M 28,93 V 89.5 M 47,93 V 89.5 M 66,93 V 89.5 M 85,93 v -3.5"
           inkscape:connector-curvature="0" />
      </g>
    </g>
    <g
       style="fill:none;stroke:#ff0000;stroke-width:0.02631579px;stroke-linecap:round;stroke-linejoin:round"
       transform="matrix(38,0,0,-38,79.5,59.5)"
       id="graph-6">
      <path
         d="M 0,0.70711 C 0.26528,0.89469 0.51963,1 0.70711,1 0.89464,1 1,0.89464 1,0.70711 1,0.52194 0.89726,0.27146 0.7138,0.00951 0.52344,-0.26229 0.26227,-0.52345 -0.00953,-0.71381 -0.27147,-0.89727 -0.52194,-1 -0.70711,-1 c -0.17602,0 -0.28007,0.09286 -0.29178,0.26041 -0.01243,0.17779 0.08006,0.42573 0.25738,0.68969 C -0.55194,0.2323 -0.28254,0.50732 0,0.70711 Z"
         id="curve-1"
         inkscape:connector-curvature="0" />
    </g>
  </g>
  <g
     id="g108"
     transform="matrix(2.0743768,0,0,2.0606335,620.63906,130.63442)">
    <g
       style="fill:none;stroke:#000000;stroke-width:1px;stroke-linecap:square;stroke-linejoin:miter"
       id="box-5">
      <rect
         id="rect74"
         height="94"
         width="94"
         y="12.5"
         x="32.5" />
      <g
         id="g80"
         transform="translate(33,12.5)">
        <path
           id="path76"
           d="M 0,9 H 3.5 M 0,28 H 3.5 M 0,47 H 3.5 M 0,66 H 3.5 M 0,85 h 3.5"
           inkscape:connector-curvature="0" />
        <path
           id="path78"
           d="M 93,9 H 89.5 M 93,28 H 89.5 M 93,47 H 89.5 M 93,66 H 89.5 M 93,85 h -3.5"
           inkscape:connector-curvature="0" />
      </g>
      <g
         id="g86"
         transform="translate(32.5,13)">
        <path
           id="path82"
           d="M 9,0 V 3.5 M 28,0 V 3.5 M 47,0 V 3.5 M 66,0 V 3.5 M 85,0 v 3.5"
           inkscape:connector-curvature="0" />
        <path
           id="path84"
           d="M 9,93 V 89.5 M 28,93 V 89.5 M 47,93 V 89.5 M 66,93 V 89.5 M 85,93 v -3.5"
           inkscape:connector-curvature="0" />
      </g>
    </g>
    <g
       style="fill:none;stroke:#ff0000;stroke-width:0.02631579px;stroke-linecap:round;stroke-linejoin:round"
       transform="matrix(38,0,0,-38,79.5,59.5)"
       id="graph-60">
      <path
         d="M -0.70711,1 C -0.52194,1 -0.27146,0.89726 -0.00951,0.7138 0.26229,0.52344 0.52345,0.26227 0.71381,-0.00953 0.89727,-0.27147 1,-0.52194 1,-0.70711 1,-0.89464 0.89464,-1 0.70711,-1 0.51963,-1 0.26528,-0.89469 0,-0.70711 -0.28267,-0.50723 -0.55218,-0.23205 -0.74176,0.05027 -0.91901,0.31422 -1.0114,0.56212 -0.99888,0.73984 -0.98708,0.90724 -0.88304,1 -0.70711,1 Z"
         id="curve-3"
         inkscape:connector-curvature="0" />
    </g>
  </g>
  <g
     id="g148"
     transform="matrix(2.061488,0,0,2.061488,427.27807,130.54339)">
    <g
       style="fill:none;stroke:#000000;stroke-width:1px;stroke-linecap:square;stroke-linejoin:miter"
       id="box-52">
      <rect
         id="rect114"
         height="94"
         width="94"
         y="12.5"
         x="32.5" />
      <g
         id="g120"
         transform="translate(33,12.5)">
        <path
           id="path116"
           d="M 0,9 H 3.5 M 0,28 H 3.5 M 0,47 H 3.5 M 0,66 H 3.5 M 0,85 h 3.5"
           inkscape:connector-curvature="0" />
        <path
           id="path118"
           d="M 93,9 H 89.5 M 93,28 H 89.5 M 93,47 H 89.5 M 93,66 H 89.5 M 93,85 h -3.5"
           inkscape:connector-curvature="0" />
      </g>
      <g
         id="g126"
         transform="translate(32.5,13)">
        <path
           id="path122"
           d="M 9,0 V 3.5 M 28,0 V 3.5 M 47,0 V 3.5 M 66,0 V 3.5 M 85,0 v 3.5"
           inkscape:connector-curvature="0" />
        <path
           id="path124"
           d="M 9,93 V 89.5 M 28,93 V 89.5 M 47,93 V 89.5 M 66,93 V 89.5 M 85,93 v -3.5"
           inkscape:connector-curvature="0" />
      </g>
    </g>
    <g
       style="fill:none;stroke:#ff0000;stroke-width:0.02631579px;stroke-linecap:round;stroke-linejoin:round"
       transform="matrix(38,0,0,-38,79.5,59.5)"
       id="graph-5">
      <path
         d="m -1,0 c 0,0.26521 0.10536,0.51958 0.29289,0.70711 C -0.51958,0.89464 -0.26521,1 0,1 0.26521,1 0.51958,0.89464 0.70711,0.70711 0.89464,0.51958 1,0.26521 1,0 1,-0.26521 0.89464,-0.51958 0.70711,-0.70711 0.51958,-0.89464 0.26521,-1 0,-1 -0.26521,-1 -0.51958,-0.89464 -0.70711,-0.7071 -0.89464,-0.51957 -1,-0.26521 -1,0 Z"
         id="curve-8"
         inkscape:connector-curvature="0" />
    </g>
  </g>
  <g
     id="g188"
     transform="matrix(2.0779904,0,0,2.0618717,815.50907,130.53464)">
    <g
       style="fill:none;stroke:#000000;stroke-width:1px;stroke-linecap:square;stroke-linejoin:miter"
       id="box-0">
      <rect
         id="rect154"
         height="94"
         width="94"
         y="12.5"
         x="32.5" />
      <g
         id="g160"
         transform="translate(33,12.5)">
        <path
           id="path156"
           d="M 0,9 H 3.5 M 0,28 H 3.5 M 0,47 H 3.5 M 0,66 H 3.5 M 0,85 h 3.5"
           inkscape:connector-curvature="0" />
        <path
           id="path158"
           d="M 93,9 H 89.5 M 93,28 H 89.5 M 93,47 H 89.5 M 93,66 H 89.5 M 93,85 h -3.5"
           inkscape:connector-curvature="0" />
      </g>
      <g
         id="g166"
         transform="translate(32.5,13)">
        <path
           id="path162"
           d="M 9,0 V 3.5 M 28,0 V 3.5 M 47,0 V 3.5 M 66,0 V 3.5 M 85,0 v 3.5"
           inkscape:connector-curvature="0" />
        <path
           id="path164"
           d="M 9,93 V 89.5 M 28,93 V 89.5 M 47,93 V 89.5 M 66,93 V 89.5 M 85,93 v -3.5"
           inkscape:connector-curvature="0" />
      </g>
    </g>
    <g
       style="fill:none;stroke:#ff0000;stroke-width:0.02631579px;stroke-linecap:round;stroke-linejoin:round"
       transform="matrix(38,0,0,-38,79.5,59.5)"
       id="graph-53">
      <path
         d="M 1,1 -1,-1"
         id="curve-5"
         inkscape:connector-curvature="0" />
    </g>
  </g>
  <g
     id="g228"
     transform="matrix(2.0608633,0,0,2.0608633,40.066981,324.65945)">
    <g
       style="fill:none;stroke:#000000;stroke-width:1px;stroke-linecap:square;stroke-linejoin:miter"
       id="box-44">
      <rect
         id="rect194"
         height="94"
         width="94"
         y="12.5"
         x="32.5" />
      <g
         id="g200"
         transform="translate(33,12.5)">
        <path
           id="path196"
           d="M 0,9 H 3.5 M 0,28 H 3.5 M 0,47 H 3.5 M 0,66 H 3.5 M 0,85 h 3.5"
           inkscape:connector-curvature="0" />
        <path
           id="path198"
           d="M 93,9 H 89.5 M 93,28 H 89.5 M 93,47 H 89.5 M 93,66 H 89.5 M 93,85 h -3.5"
           inkscape:connector-curvature="0" />
      </g>
      <g
         id="g206"
         transform="translate(32.5,13)">
        <path
           id="path202"
           d="M 9,0 V 3.5 M 28,0 V 3.5 M 47,0 V 3.5 M 66,0 V 3.5 M 85,0 v 3.5"
           inkscape:connector-curvature="0" />
        <path
           id="path204"
           d="M 9,93 V 89.5 M 28,93 V 89.5 M 47,93 V 89.5 M 66,93 V 89.5 M 85,93 v -3.5"
           inkscape:connector-curvature="0" />
      </g>
    </g>
    <g
       style="fill:none;stroke:#ff0000;stroke-width:0.02631579px;stroke-linecap:round;stroke-linejoin:round"
       transform="matrix(38,0,0,-38,79.5,59.5)"
       id="graph-4">
      <path
         d="M 0.70711,1 C 0.75365,1 0.81451,0.97413 0.87047,0.85693 0.95911,0.6713 1,0.32982 1,0 1,-0.32982 0.95911,-0.67129 0.87047,-0.85693 0.81451,-0.97413 0.75365,-1 0.70711,-1 0.60942,-1 0.50264,-0.88561 0.39972,-0.73279 0.14113,-0.34887 -0.14113,0.34888 -0.39972,0.73279 -0.50265,0.88561 -0.60942,1 -0.70711,1 -0.75365,1 -0.81451,0.97413 -0.87047,0.85693 -0.95911,0.6713 -1,0.32982 -1,0 -1,-0.32982 -0.95911,-0.6713 -0.87047,-0.85693 -0.81451,-0.97413 -0.75365,-1 -0.70711,-1 c 0.09769,0 0.20447,0.11439 0.30739,0.26721 0.25859,0.38392 0.54085,1.08167 0.79944,1.46558 C 0.50265,0.88561 0.60942,1 0.70711,1 Z"
         id="curve-6"
         inkscape:connector-curvature="0" />
    </g>
  </g>
  <g
     id="g268"
     transform="matrix(2.0652631,0,0,2.0652631,233.05421,324.30051)">
    <g
       style="fill:none;stroke:#000000;stroke-width:1px;stroke-linecap:square;stroke-linejoin:miter"
       id="box-3">
      <rect
         id="rect234"
         height="94"
         width="94"
         y="12.5"
         x="32.5" />
      <g
         id="g240"
         transform="translate(33,12.5)">
        <path
           id="path236"
           d="M 0,9 H 3.5 M 0,28 H 3.5 M 0,47 H 3.5 M 0,66 H 3.5 M 0,85 h 3.5"
           inkscape:connector-curvature="0" />
        <path
           id="path238"
           d="M 93,9 H 89.5 M 93,28 H 89.5 M 93,47 H 89.5 M 93,66 H 89.5 M 93,85 h -3.5"
           inkscape:connector-curvature="0" />
      </g>
      <g
         id="g246"
         transform="translate(32.5,13)">
        <path
           id="path242"
           d="M 9,0 V 3.5 M 28,0 V 3.5 M 47,0 V 3.5 M 66,0 V 3.5 M 85,0 v 3.5"
           inkscape:connector-curvature="0" />
        <path
           id="path244"
           d="M 9,93 V 89.5 M 28,93 V 89.5 M 47,93 V 89.5 M 66,93 V 89.5 M 85,93 v -3.5"
           inkscape:connector-curvature="0" />
      </g>
    </g>
    <g
       style="fill:none;stroke:#ff0000;stroke-width:0.02631579px;stroke-linecap:round;stroke-linejoin:round"
       transform="matrix(38,0,0,-38,79.5,59.5)"
       id="graph-3">
      <path
         d="M 0.92388,1 C 0.93974,1 0.95686,0.9897 0.97093,0.95476 0.99131,0.90411 1,0.81472 1,0.70711 1,0.49562 0.9664,0.194 0.90493,-0.09363 0.84371,-0.38009 0.75076,-0.67176 0.62549,-0.84398 0.53685,-0.96585 0.45242,-1 0.38268,-1 0.20405,-1 0.02704,-0.77591 -0.13235,-0.4968 -0.34026,-0.13273 -0.53289,0.35123 -0.69003,0.67256 -0.77945,0.85543 -0.86437,1 -0.92388,1 -0.93974,1 -0.95686,0.9897 -0.97093,0.95476 -0.99131,0.90411 -1,0.81472 -1,0.70711 -1,0.49562 -0.9664,0.194 -0.90493,-0.09363 -0.84371,-0.38009 -0.75076,-0.67176 -0.62549,-0.84398 -0.53685,-0.96585 -0.45242,-1 -0.38268,-1 c 0.17863,0 0.35564,0.22409 0.51503,0.5032 0.20791,0.36407 0.40054,0.84803 0.55768,1.16936 C 0.77945,0.85543 0.86437,1 0.92388,1 Z"
         id="curve-68"
         inkscape:connector-curvature="0" />
    </g>
  </g>
  <g
     id="g308"
     transform="matrix(2.0606736,0,0,2.0606736,427.43606,324.46497)">
    <g
       style="fill:none;stroke:#000000;stroke-width:1px;stroke-linecap:square;stroke-linejoin:miter"
       id="box-9">
      <rect
         id="rect274"
         height="94"
         width="94"
         y="12.5"
         x="32.5" />
      <g
         id="g280"
         transform="translate(33,12.5)">
        <path
           id="path276"
           d="M 0,9 H 3.5 M 0,28 H 3.5 M 0,47 H 3.5 M 0,66 H 3.5 M 0,85 h 3.5"
           inkscape:connector-curvature="0" />
        <path
           id="path278"
           d="M 93,9 H 89.5 M 93,28 H 89.5 M 93,47 H 89.5 M 93,66 H 89.5 M 93,85 h -3.5"
           inkscape:connector-curvature="0" />
      </g>
      <g
         id="g286"
         transform="translate(32.5,13)">
        <path
           id="path282"
           d="M 9,0 V 3.5 M 28,0 V 3.5 M 47,0 V 3.5 M 66,0 V 3.5 M 85,0 v 3.5"
           inkscape:connector-curvature="0" />
        <path
           id="path284"
           d="M 9,93 V 89.5 M 28,93 V 89.5 M 47,93 V 89.5 M 66,93 V 89.5 M 85,93 v -3.5"
           inkscape:connector-curvature="0" />
      </g>
    </g>
    <g
       style="fill:none;stroke:#ff0000;stroke-width:0.02631579px;stroke-linecap:round;stroke-linejoin:round"
       transform="matrix(38,0,0,-38,79.5,59.5)"
       id="graph-0">
      <path
         d="m -1,1 c 0.33333,-1.33333 0.66667,-2 1,-2 0.33333,0 0.66667,0.66667 1,2"
         id="curve-2"
         inkscape:connector-curvature="0" />
    </g>
  </g>
  <g
     id="g348"
     transform="matrix(2.0725384,0,0,2.0610857,620.86765,324.36038)">
    <g
       style="fill:none;stroke:#000000;stroke-width:1px;stroke-linecap:square;stroke-linejoin:miter"
       id="box-8">
      <rect
         id="rect314"
         height="94"
         width="94"
         y="12.5"
         x="32.5" />
      <g
         id="g320"
         transform="translate(33,12.5)">
        <path
           id="path316"
           d="M 0,9 H 3.5 M 0,28 H 3.5 M 0,47 H 3.5 M 0,66 H 3.5 M 0,85 h 3.5"
           inkscape:connector-curvature="0" />
        <path
           id="path318"
           d="M 93,9 H 89.5 M 93,28 H 89.5 M 93,47 H 89.5 M 93,66 H 89.5 M 93,85 h -3.5"
           inkscape:connector-curvature="0" />
      </g>
      <g
         id="g326"
         transform="translate(32.5,13)">
        <path
           id="path322"
           d="M 9,0 V 3.5 M 28,0 V 3.5 M 47,0 V 3.5 M 66,0 V 3.5 M 85,0 v 3.5"
           inkscape:connector-curvature="0" />
        <path
           id="path324"
           d="M 9,93 V 89.5 M 28,93 V 89.5 M 47,93 V 89.5 M 66,93 V 89.5 M 85,93 v -3.5"
           inkscape:connector-curvature="0" />
      </g>
    </g>
    <g
       style="fill:none;stroke:#ff0000;stroke-width:0.02631579px;stroke-linecap:round;stroke-linejoin:round"
       transform="matrix(38,0,0,-38,79.5,59.5)"
       id="graph-2">
      <path
         d="M 0.92388,1 C 0.93974,1 0.95686,0.9897 0.97093,0.95476 0.99131,0.90411 1,0.81472 1,0.70711 1,0.49562 0.9664,0.194 0.90493,-0.09363 0.84371,-0.38009 0.75076,-0.67176 0.62549,-0.84398 0.53685,-0.96585 0.45242,-1 0.38268,-1 0.20405,-1 0.02704,-0.77591 -0.13235,-0.4968 -0.34026,-0.13273 -0.53289,0.35123 -0.69003,0.67256 -0.77945,0.85543 -0.86437,1 -0.92388,1 -0.93974,1 -0.95686,0.9897 -0.97093,0.95476 -0.99131,0.90411 -1,0.81472 -1,0.70711 -1,0.49562 -0.9664,0.194 -0.90493,-0.09363 -0.84371,-0.38009 -0.75076,-0.67176 -0.62549,-0.84398 -0.53685,-0.96585 -0.45242,-1 -0.38268,-1 c 0.17863,0 0.35564,0.22409 0.51503,0.5032 0.20791,0.36407 0.40054,0.84803 0.55768,1.16936 C 0.77945,0.85543 0.86437,1 0.92388,1 Z"
         id="curve-69"
         inkscape:connector-curvature="0" />
    </g>
  </g>
  <g
     id="g388"
     transform="matrix(2.0776677,0,0,2.0646418,815.51956,324.31591)">
    <g
       style="fill:none;stroke:#000000;stroke-width:1px;stroke-linecap:square;stroke-linejoin:miter"
       id="box-2">
      <rect
         id="rect354"
         height="94"
         width="94"
         y="12.5"
         x="32.5" />
      <g
         id="g360"
         transform="translate(33,12.5)">
        <path
           id="path356"
           d="M 0,9 H 3.5 M 0,28 H 3.5 M 0,47 H 3.5 M 0,66 H 3.5 M 0,85 h 3.5"
           inkscape:connector-curvature="0" />
        <path
           id="path358"
           d="M 93,9 H 89.5 M 93,28 H 89.5 M 93,47 H 89.5 M 93,66 H 89.5 M 93,85 h -3.5"
           inkscape:connector-curvature="0" />
      </g>
      <g
         id="g366"
         transform="translate(32.5,13)">
        <path
           id="path362"
           d="M 9,0 V 3.5 M 28,0 V 3.5 M 47,0 V 3.5 M 66,0 V 3.5 M 85,0 v 3.5"
           inkscape:connector-curvature="0" />
        <path
           id="path364"
           d="M 9,93 V 89.5 M 28,93 V 89.5 M 47,93 V 89.5 M 66,93 V 89.5 M 85,93 v -3.5"
           inkscape:connector-curvature="0" />
      </g>
    </g>
    <g
       style="fill:none;stroke:#ff0000;stroke-width:0.02631579px;stroke-linecap:round;stroke-linejoin:round"
       transform="matrix(38,0,0,-38,79.5,59.5)"
       id="graph-55">
      <path
         d="M -0.70711,1 C -0.75365,1 -0.81451,0.97413 -0.87047,0.85693 -0.95911,0.6713 -1,0.32982 -1,0 -1,-0.32982 -0.95911,-0.67129 -0.87047,-0.85693 -0.81451,-0.97413 -0.75365,-1 -0.70711,-1 c 0.09769,0 0.20447,0.11439 0.30739,0.26721 0.25859,0.38392 0.54085,1.08167 0.79944,1.46558 C 0.50265,0.88561 0.60942,1 0.70711,1 0.75365,1 0.81451,0.97413 0.87047,0.85693 0.95911,0.6713 1,0.32982 1,0 1,-0.32982 0.95911,-0.67129 0.87047,-0.85693 0.81451,-0.97413 0.75365,-1 0.70711,-1 0.60942,-1 0.50264,-0.88561 0.39972,-0.73279 0.14113,-0.34887 -0.14113,0.34888 -0.39972,0.73279 -0.50265,0.88561 -0.60942,1 -0.70711,1 Z"
         id="curve-35"
         inkscape:connector-curvature="0" />
    </g>
  </g>
  <g
     id="g428"
     transform="matrix(2.0604368,0,0,2.0604368,40.034122,518.33922)">
    <g
       style="fill:none;stroke:#000000;stroke-width:1px;stroke-linecap:square;stroke-linejoin:miter"
       id="box-35">
      <rect
         id="rect394"
         height="94"
         width="94"
         y="12.5"
         x="32.5" />
      <g
         id="g400"
         transform="translate(33,12.5)">
        <path
           id="path396"
           d="M 0,9 H 3.5 M 0,28 H 3.5 M 0,47 H 3.5 M 0,66 H 3.5 M 0,85 h 3.5"
           inkscape:connector-curvature="0" />
        <path
           id="path398"
           d="M 93,9 H 89.5 M 93,28 H 89.5 M 93,47 H 89.5 M 93,66 H 89.5 M 93,85 h -3.5"
           inkscape:connector-curvature="0" />
      </g>
      <g
         id="g406"
         transform="translate(32.5,13)">
        <path
           id="path402"
           d="M 9,0 V 3.5 M 28,0 V 3.5 M 47,0 V 3.5 M 66,0 V 3.5 M 85,0 v 3.5"
           inkscape:connector-curvature="0" />
        <path
           id="path404"
           d="M 9,93 V 89.5 M 28,93 V 89.5 M 47,93 V 89.5 M 66,93 V 89.5 M 85,93 v -3.5"
           inkscape:connector-curvature="0" />
      </g>
    </g>
    <g
       style="fill:none;stroke:#ff0000;stroke-width:0.02631579px;stroke-linecap:round;stroke-linejoin:round"
       transform="matrix(38,0,0,-38,79.5,59.5)"
       id="graph-03">
      <path
         d="m -1,1 c 0.16667,-1.5 0.33333,-2 0.5,-2 0.33333,0 0.66667,2 1,2 C 0.66667,1 0.83333,0.5 1,-1"
         id="curve-53"
         inkscape:connector-curvature="0" />
    </g>
  </g>
  <g
     id="g468"
     transform="matrix(2.0665659,0,0,2.0596579,232.89758,518.39104)">
    <g
       style="fill:none;stroke:#000000;stroke-width:1px;stroke-linecap:square;stroke-linejoin:miter"
       id="box-59">
      <rect
         id="rect434"
         height="94"
         width="94"
         y="12.5"
         x="32.5" />
      <g
         id="g440"
         transform="translate(33,12.5)">
        <path
           id="path436"
           d="M 0,9 H 3.5 M 0,28 H 3.5 M 0,47 H 3.5 M 0,66 H 3.5 M 0,85 h 3.5"
           inkscape:connector-curvature="0" />
        <path
           id="path438"
           d="M 93,9 H 89.5 M 93,28 H 89.5 M 93,47 H 89.5 M 93,66 H 89.5 M 93,85 h -3.5"
           inkscape:connector-curvature="0" />
      </g>
      <g
         id="g446"
         transform="translate(32.5,13)">
        <path
           id="path442"
           d="M 9,0 V 3.5 M 28,0 V 3.5 M 47,0 V 3.5 M 66,0 V 3.5 M 85,0 v 3.5"
           inkscape:connector-curvature="0" />
        <path
           id="path444"
           d="M 9,93 V 89.5 M 28,93 V 89.5 M 47,93 V 89.5 M 66,93 V 89.5 M 85,93 v -3.5"
           inkscape:connector-curvature="0" />
      </g>
    </g>
    <g
       style="fill:none;stroke:#ff0000;stroke-width:0.02631579px;stroke-linecap:round;stroke-linejoin:round"
       transform="matrix(38,0,0,-38,79.5,59.5)"
       id="graph-601">
      <path
         d="M -0.96593,1 C -0.97336,1 -0.98113,0.98888 -0.9874,0.95274 -0.99635,0.9012 -1,0.81172 -1,0.70711 c 0,-0.21763 0.01583,-0.533 0.04532,-0.82802 0.01987,-0.19881 0.05709,-0.50007 0.11738,-0.6925 C -0.793,-0.95482 -0.74803,-1 -0.70711,-1 c 0.0745,0 0.15326,0.14976 0.23368,0.36026 0.12626,0.33053 0.25985,0.81933 0.40049,1.17633 C 0.03457,0.80948 0.1441,1 0.25882,1 0.36729,1 0.46573,0.82959 0.56064,0.54024 0.67493,0.1918 0.77057,-0.28799 0.84715,-0.62538 0.89498,-0.8361 0.93735,-1 0.96593,-1 0.97336,-1 0.98113,-0.98888 0.9874,-0.95274 0.99635,-0.9012 1,-0.81172 1,-0.70711 1,-0.48948 0.98417,-0.17412 0.95468,0.1209 0.93481,0.31971 0.8976,0.62097 0.8373,0.81341 0.793,0.95482 0.74803,1 0.70711,1 0.63261,1 0.55385,0.85024 0.47344,0.63974 0.34717,0.30921 0.21358,-0.17959 0.07294,-0.53659 -0.03457,-0.80948 -0.1441,-1 -0.25882,-1 -0.36729,-1 -0.46573,-0.82959 -0.56064,-0.54024 -0.67493,-0.1918 -0.77057,0.28799 -0.84715,0.62538 -0.89498,0.83611 -0.93735,1 -0.96593,1 Z"
         id="curve-36"
         inkscape:connector-curvature="0" />
    </g>
  </g>
  <g
     id="g508"
     transform="matrix(2.0610534,0,0,2.0602622,427.32347,518.4955)">
    <g
       style="fill:none;stroke:#000000;stroke-width:1px;stroke-linecap:square;stroke-linejoin:miter"
       id="box-20">
      <rect
         id="rect474"
         height="94"
         width="94"
         y="12.5"
         x="32.5" />
      <g
         id="g480"
         transform="translate(33,12.5)">
        <path
           id="path476"
           d="M 0,9 H 3.5 M 0,28 H 3.5 M 0,47 H 3.5 M 0,66 H 3.5 M 0,85 h 3.5"
           inkscape:connector-curvature="0" />
        <path
           id="path478"
           d="M 93,9 H 89.5 M 93,28 H 89.5 M 93,47 H 89.5 M 93,66 H 89.5 M 93,85 h -3.5"
           inkscape:connector-curvature="0" />
      </g>
      <g
         id="g486"
         transform="translate(32.5,13)">
        <path
           id="path482"
           d="M 9,0 V 3.5 M 28,0 V 3.5 M 47,0 V 3.5 M 66,0 V 3.5 M 85,0 v 3.5"
           inkscape:connector-curvature="0" />
        <path
           id="path484"
           d="M 9,93 V 89.5 M 28,93 V 89.5 M 47,93 V 89.5 M 66,93 V 89.5 M 85,93 v -3.5"
           inkscape:connector-curvature="0" />
      </g>
    </g>
    <g
       style="fill:none;stroke:#ff0000;stroke-width:0.02631579px;stroke-linecap:round;stroke-linejoin:round"
       transform="matrix(38,0,0,-38,79.5,59.5)"
       id="graph-62">
      <path
         d="m -1,0 c 0,0.21937 0.00803,0.44329 0.02498,0.62248 0.01066,0.11269 0.02719,0.23244 0.05271,0.30601 C -0.90382,0.9818 -0.88439,1 -0.86603,1 -0.81035,1 -0.74506,0.83288 -0.67597,0.61 -0.57318,0.27841 -0.45723,-0.1919 -0.32841,-0.53705 -0.22426,-0.81608 -0.11667,-1 0,-1 0.11667,-1 0.22426,-0.81608 0.32841,-0.53705 0.45723,-0.1919 0.57318,0.2784 0.67597,0.60999 0.74506,0.83287 0.81035,1 0.86603,1 0.88439,1 0.90382,0.9818 0.92231,0.9285 0.94783,0.85492 0.96436,0.73517 0.97502,0.62249 0.99197,0.44329 1,0.21937 1,0 1,-0.21937 0.99197,-0.44329 0.97502,-0.62248 0.96436,-0.73517 0.94783,-0.85492 0.92231,-0.92849 0.90382,-0.9818 0.88439,-1 0.86603,-1 0.81035,-1 0.74507,-0.83288 0.67597,-0.61 0.57318,-0.27841 0.45723,0.1919 0.32841,0.53705 0.22426,0.81609 0.11667,1 0,1 -0.11667,1 -0.22427,0.81608 -0.32841,0.53704 -0.45723,0.1919 -0.57318,-0.2784 -0.67597,-0.60999 -0.74506,-0.83287 -0.81035,-1 -0.86603,-1 c -0.01836,0 -0.03779,0.0182 -0.05628,0.0715 -0.02552,0.07358 -0.04205,0.19333 -0.05271,0.30601 C -0.99197,-0.44329 -1,-0.21937 -1,0 Z"
         id="curve-19"
         inkscape:connector-curvature="0" />
    </g>
  </g>
  <g
     id="g548"
     transform="matrix(2.0718889,0,0,2.0627268,620.94981,518.08193)">
    <g
       style="fill:none;stroke:#000000;stroke-width:1px;stroke-linecap:square;stroke-linejoin:miter"
       id="box-41">
      <rect
         id="rect514"
         height="94"
         width="94"
         y="12.5"
         x="32.5" />
      <g
         id="g520"
         transform="translate(33,12.5)">
        <path
           id="path516"
           d="M 0,9 H 3.5 M 0,28 H 3.5 M 0,47 H 3.5 M 0,66 H 3.5 M 0,85 h 3.5"
           inkscape:connector-curvature="0" />
        <path
           id="path518"
           d="M 93,9 H 89.5 M 93,28 H 89.5 M 93,47 H 89.5 M 93,66 H 89.5 M 93,85 h -3.5"
           inkscape:connector-curvature="0" />
      </g>
      <g
         id="g526"
         transform="translate(32.5,13)">
        <path
           id="path522"
           d="M 9,0 V 3.5 M 28,0 V 3.5 M 47,0 V 3.5 M 66,0 V 3.5 M 85,0 v 3.5"
           inkscape:connector-curvature="0" />
        <path
           id="path524"
           d="M 9,93 V 89.5 M 28,93 V 89.5 M 47,93 V 89.5 M 66,93 V 89.5 M 85,93 v -3.5"
           inkscape:connector-curvature="0" />
      </g>
    </g>
    <g
       style="fill:none;stroke:#ff0000;stroke-width:0.02631579px;stroke-linecap:round;stroke-linejoin:round"
       transform="matrix(38,0,0,-38,79.5,59.5)"
       id="graph-9">
      <path
         d="M -0.25882,1 C -0.14409,1 -0.03456,0.80946 0.07296,0.53654 0.21359,0.17955 0.34718,-0.30923 0.47344,-0.63975 0.55385,-0.85024 0.63262,-1 0.70711,-1 0.74803,-1 0.793,-0.95482 0.83731,-0.81341 0.8976,-0.62097 0.93482,-0.3197 0.95469,-0.12089 0.98417,0.17412 1,0.48948 1,0.70711 1,0.81172 0.99635,0.9012 0.9874,0.95274 0.98113,0.98888 0.97336,1 0.96593,1 0.93735,1 0.89498,0.83609 0.84715,0.62535 0.77057,0.28795 0.67493,-0.19182 0.56064,-0.54025 0.46573,-0.8296 0.36729,-1 0.25882,-1 0.14409,-1 0.03456,-0.80946 -0.07296,-0.53654 -0.2136,-0.17954 -0.34718,0.30924 -0.47344,0.63976 -0.55385,0.85025 -0.63262,1 -0.70711,1 -0.74803,1 -0.793,0.95482 -0.83731,0.81341 -0.8976,0.62097 -0.93482,0.3197 -0.95469,0.12089 -0.98417,-0.17412 -1,-0.48948 -1,-0.70711 -1,-0.81172 -0.99635,-0.9012 -0.9874,-0.95274 -0.98113,-0.98888 -0.97336,-1 -0.96593,-1 c 0.02858,0 0.07095,0.16391 0.11878,0.37465 0.07658,0.33739 0.17222,0.81717 0.28651,1.1656 C -0.46573,0.8296 -0.36729,1 -0.25882,1 Z"
         id="curve-4"
         inkscape:connector-curvature="0" />
    </g>
  </g>
  <g
     id="g588"
     transform="matrix(2.078734,0,0,2.0580103,815.4866,518.47685)">
    <g
       style="fill:none;stroke:#000000;stroke-width:1px;stroke-linecap:square;stroke-linejoin:miter"
       id="box-28">
      <rect
         id="rect554"
         height="94"
         width="94"
         y="12.5"
         x="32.5" />
      <g
         id="g560"
         transform="translate(33,12.5)">
        <path
           id="path556"
           d="M 0,9 H 3.5 M 0,28 H 3.5 M 0,47 H 3.5 M 0,66 H 3.5 M 0,85 h 3.5"
           inkscape:connector-curvature="0" />
        <path
           id="path558"
           d="M 93,9 H 89.5 M 93,28 H 89.5 M 93,47 H 89.5 M 93,66 H 89.5 M 93,85 h -3.5"
           inkscape:connector-curvature="0" />
      </g>
      <g
         id="g566"
         transform="translate(32.5,13)">
        <path
           id="path562"
           d="M 9,0 V 3.5 M 28,0 V 3.5 M 47,0 V 3.5 M 66,0 V 3.5 M 85,0 v 3.5"
           inkscape:connector-curvature="0" />
        <path
           id="path564"
           d="M 9,93 V 89.5 M 28,93 V 89.5 M 47,93 V 89.5 M 66,93 V 89.5 M 85,93 v -3.5"
           inkscape:connector-curvature="0" />
      </g>
    </g>
    <g
       style="fill:none;stroke:#ff0000;stroke-width:0.02631579px;stroke-linecap:round;stroke-linejoin:round"
       transform="matrix(38,0,0,-38,79.5,59.5)"
       id="graph-08">
      <path
         d="m -1,-1 c 0.16667,1.5 0.33333,2 0.5,2 0.33333,0 0.66667,-2 1,-2 0.16667,0 0.33333,0.5 0.5,2"
         id="curve-0"
         inkscape:connector-curvature="0" />
    </g>
  </g>
  <text
     xml:space="preserve"
     style="font-style:normal;font-weight:normal;font-size:38.5558815px;line-height:1.25;font-family:sans-serif;letter-spacing:0px;word-spacing:0px;fill:#000000;fill-opacity:1;stroke:none;stroke-width:7.22922802"
     x="162.34053"
     y="114.68385"
     id="text592"><tspan
       sodipodi:role="line"
       id="tspan590"
       x="162.34053"
       y="114.68385"
       style="stroke-width:7.22922802">φ=0</tspan><tspan
       sodipodi:role="line"
       x="162.34053"
       y="162.87871"
       id="tspan594"
       style="stroke-width:7.22922802" /></text>
  <text
     xml:space="preserve"
     style="font-style:normal;font-weight:normal;font-size:38.5558815px;line-height:1.25;font-family:sans-serif;letter-spacing:0px;word-spacing:0px;fill:#000000;fill-opacity:1;stroke:none;stroke-width:7.22922802"
     x="27.764124"
     y="267.28827"
     id="text598"><tspan
       sodipodi:role="line"
       id="tspan596"
       x="27.764124"
       y="267.28827"
       style="stroke-width:7.22922802">1:1</tspan></text>
  <text
     xml:space="preserve"
     style="font-style:normal;font-weight:normal;font-size:38.5558815px;line-height:1.25;font-family:sans-serif;letter-spacing:0px;word-spacing:0px;fill:#000000;fill-opacity:1;stroke:none;stroke-width:7.22922802"
     x="27.764124"
     y="461.09286"
     id="text598-5"><tspan
       sodipodi:role="line"
       id="tspan596-1"
       x="27.764124"
       y="461.09286"
       style="stroke-width:7.22922802">1:2</tspan></text>
  <text
     xml:space="preserve"
     style="font-style:normal;font-weight:normal;font-size:38.5558815px;line-height:1.25;font-family:sans-serif;letter-spacing:0px;word-spacing:0px;fill:#000000;fill-opacity:1;stroke:none;stroke-width:7.22922802"
     x="27.764124"
     y="654.77478"
     id="text598-5-9"><tspan
       sodipodi:role="line"
       id="tspan596-1-2"
       x="27.764124"
       y="654.77478"
       style="stroke-width:7.22922802">1:3</tspan></text>
  <text
     xml:space="preserve"
     style="font-style:normal;font-weight:normal;font-size:38.5558815px;line-height:1.25;font-family:sans-serif;letter-spacing:0px;word-spacing:0px;fill:#000000;fill-opacity:1;stroke:none;stroke-width:7.22922802"
     x="340.74826"
     y="114.68385"
     id="text592-5"><tspan
       sodipodi:role="line"
       id="tspan590-6"
       x="340.74826"
       y="114.68385"
       style="stroke-width:7.22922802">φ=π/4</tspan><tspan
       sodipodi:role="line"
       x="340.74826"
       y="162.87871"
       id="tspan594-1"
       style="stroke-width:7.22922802" /></text>
  <text
     xml:space="preserve"
     style="font-style:normal;font-weight:normal;font-size:38.5558815px;line-height:1.25;font-family:sans-serif;letter-spacing:0px;word-spacing:0px;fill:#000000;fill-opacity:1;stroke:none;stroke-width:7.22922802"
     x="534.49158"
     y="114.68385"
     id="text592-5-8"><tspan
       sodipodi:role="line"
       id="tspan590-6-7"
       x="534.49158"
       y="114.68385"
       style="stroke-width:7.22922802">φ=π/2</tspan><tspan
       sodipodi:role="line"
       x="534.49158"
       y="162.87871"
       id="tspan594-1-4"
       style="stroke-width:7.22922802" /></text>
  <text
     xml:space="preserve"
     style="font-style:normal;font-weight:normal;font-size:38.5558815px;line-height:1.25;font-family:sans-serif;letter-spacing:0px;word-spacing:0px;fill:#000000;fill-opacity:1;stroke:none;stroke-width:7.22922802"
     x="730.07281"
     y="114.68385"
     id="text592-5-8-0"><tspan
       sodipodi:role="line"
       id="tspan590-6-7-6"
       x="730.07281"
       y="114.68385"
       style="stroke-width:7.22922802">φ=3π/4</tspan><tspan
       sodipodi:role="line"
       x="730.07281"
       y="162.87871"
       id="tspan594-1-4-7"
       style="stroke-width:7.22922802" /></text>
  <text
     xml:space="preserve"
     style="font-style:normal;font-weight:normal;font-size:38.5558815px;line-height:1.25;font-family:sans-serif;letter-spacing:0px;word-spacing:0px;fill:#000000;fill-opacity:1;stroke:none;stroke-width:7.22922802"
     x="940.11218"
     y="114.68385"
     id="text592-5-8-0-0"><tspan
       sodipodi:role="line"
       id="tspan590-6-7-6-2"
       x="940.11218"
       y="114.68385"
       style="stroke-width:7.22922802">φ=π</tspan><tspan
       sodipodi:role="line"
       x="940.11218"
       y="162.87871"
       id="tspan594-1-4-7-0"
       style="stroke-width:7.22922802" /></text>
</svg>
