M48
; DRILL file {KiCad (5.1.4)-1} date 20.11.2019 15:49:47
; FORMAT={-:-/ absolute / metric / decimal}
; #@! TF.CreationDate,2019-11-20T15:49:47+01:00
; #@! TF.GenerationSoftware,Kicad,Pcbnew,(5.1.4)-1
; #@! TF.FileFunction,Plated,1,2,PTH
FMAT,2
METRIC
T1C0.400
T2C0.890
T3C1.200
T4C2.010
%
G90
G05
T1
X105.64Y-75.61
X105.68Y-72.77
X113.89Y-74.31
X124.64Y-83.29
T2
X131.27Y-71.58
X131.27Y-74.12
X102.79Y-84.84
X102.79Y-87.38
X131.27Y-87.38
X131.27Y-89.92
X102.78Y-68.99
X102.78Y-71.53
T3
X122.98Y-64.79
X122.98Y-77.49
X117.44Y-64.82
X117.44Y-77.52
X110.49Y-87.23
X123.19Y-87.23
X110.35Y-93.05
X123.05Y-93.05
T4
X136.35Y-66.5
X136.35Y-76.66
X97.71Y-82.3
X97.71Y-92.46
X136.35Y-82.3
X136.35Y-92.46
X97.7Y-66.45
X97.7Y-76.61
T0
M30
