G04 #@! TF.GenerationSoftware,KiCad,Pcbnew,(5.1.4)-1*
G04 #@! TF.CreationDate,2019-11-20T15:49:42+01:00*
G04 #@! TF.ProjectId,Centretappedtrafo,43656e74-7265-4746-9170-706564747261,rev?*
G04 #@! TF.SameCoordinates,Original*
G04 #@! TF.FileFunction,Copper,L1,Top*
G04 #@! TF.FilePolarity,Positive*
%FSLAX46Y46*%
G04 Gerber Fmt 4.6, Leading zero omitted, Abs format (unit mm)*
G04 Created by KiCad (PCBNEW (5.1.4)-1) date 2019-11-20 15:49:42*
%MOMM*%
%LPD*%
G04 APERTURE LIST*
%ADD10O,7.000000X3.500000*%
%ADD11O,2.500000X1.600000*%
%ADD12R,2.400000X2.400000*%
%ADD13O,2.400000X2.400000*%
%ADD14R,0.700000X0.600000*%
%ADD15R,0.600000X0.700000*%
%ADD16C,0.800000*%
%ADD17C,0.500000*%
%ADD18C,0.250000*%
%ADD19C,0.254000*%
G04 APERTURE END LIST*
D10*
X97700000Y-66450000D03*
X97700000Y-76610000D03*
D11*
X102780000Y-71530000D03*
X102780000Y-68990000D03*
X102790000Y-84840000D03*
X102790000Y-87380000D03*
D10*
X97710000Y-92460000D03*
X97710000Y-82300000D03*
D12*
X122980000Y-64790000D03*
D13*
X122980000Y-77490000D03*
D14*
X122930000Y-81540000D03*
X122930000Y-80140000D03*
D12*
X110490000Y-87230000D03*
D13*
X123190000Y-87230000D03*
D15*
X126600000Y-87200000D03*
X125200000Y-87200000D03*
D13*
X117440000Y-64820000D03*
D12*
X117440000Y-77520000D03*
D14*
X117510000Y-81540000D03*
X117510000Y-80140000D03*
D13*
X110350000Y-93050000D03*
D12*
X123050000Y-93050000D03*
D15*
X126650000Y-93040000D03*
X125250000Y-93040000D03*
D11*
X131270000Y-74120000D03*
X131270000Y-71580000D03*
D10*
X136350000Y-66500000D03*
X136350000Y-76660000D03*
X136350000Y-92460000D03*
X136350000Y-82300000D03*
D11*
X131270000Y-87380000D03*
X131270000Y-89920000D03*
D16*
X105640000Y-75610000D03*
X124640000Y-83290000D03*
X105680000Y-72770000D03*
X113890000Y-74310000D03*
D17*
X122860000Y-64670000D02*
X122980000Y-64790000D01*
X117590000Y-64670000D02*
X117440000Y-64820000D01*
X117470000Y-64790000D02*
X117440000Y-64820000D01*
X130820000Y-71580000D02*
X131270000Y-71580000D01*
X122950000Y-64820000D02*
X122980000Y-64790000D01*
X117440000Y-64820000D02*
X122950000Y-64820000D01*
X131270000Y-70530000D02*
X131270000Y-71580000D01*
X125530000Y-64790000D02*
X131270000Y-70530000D01*
X122980000Y-64790000D02*
X125530000Y-64790000D01*
D18*
X122980000Y-80490000D02*
X122900000Y-80570000D01*
X122980000Y-80170000D02*
X122930000Y-80220000D01*
X122980000Y-80090000D02*
X122930000Y-80140000D01*
X122930000Y-77540000D02*
X122980000Y-77490000D01*
D17*
X122930000Y-80140000D02*
X122930000Y-77540000D01*
X97710000Y-90460000D02*
X97710000Y-92460000D01*
X98250000Y-89920000D02*
X97710000Y-90460000D01*
X97700000Y-74610000D02*
X97700000Y-76610000D01*
X98240000Y-74070000D02*
X97700000Y-74610000D01*
X99810000Y-69780000D02*
X99770000Y-69820000D01*
X99720000Y-71560000D02*
X99720000Y-74070000D01*
X99770000Y-71510000D02*
X99720000Y-71560000D01*
X99770000Y-69820000D02*
X99770000Y-71510000D01*
X99720000Y-74070000D02*
X98240000Y-74070000D01*
X102790000Y-84840000D02*
X99120000Y-84840000D01*
X102780000Y-68990000D02*
X99850000Y-68990000D01*
X97700000Y-76610000D02*
X104650000Y-76610000D01*
X104860000Y-76400000D02*
X104860000Y-76390000D01*
X104650000Y-76610000D02*
X104860000Y-76400000D01*
X104860000Y-76390000D02*
X105640000Y-75610000D01*
X105640000Y-75610000D02*
X105640000Y-75610000D01*
D18*
X125170000Y-87230000D02*
X125200000Y-87200000D01*
D17*
X123190000Y-87230000D02*
X125170000Y-87230000D01*
X131270000Y-87380000D02*
X130820000Y-87380000D01*
X126600000Y-92990000D02*
X126650000Y-93040000D01*
X126600000Y-87200000D02*
X126600000Y-92990000D01*
X131090000Y-87200000D02*
X131270000Y-87380000D01*
X126600000Y-87200000D02*
X131090000Y-87200000D01*
X126600000Y-86600000D02*
X126600000Y-87200000D01*
X126600000Y-84684315D02*
X126600000Y-86600000D01*
X125205685Y-83290000D02*
X126600000Y-84684315D01*
X124640000Y-83290000D02*
X125205685Y-83290000D01*
D18*
X117440000Y-80300000D02*
X117510000Y-80370000D01*
X117440000Y-80040000D02*
X117510000Y-80110000D01*
X117440000Y-80070000D02*
X117510000Y-80140000D01*
X117510000Y-77590000D02*
X117440000Y-77520000D01*
D17*
X117510000Y-80140000D02*
X117510000Y-77590000D01*
D18*
X125240000Y-93050000D02*
X125250000Y-93040000D01*
D17*
X123050000Y-93050000D02*
X125240000Y-93050000D01*
X102780000Y-71530000D02*
X103230000Y-71530000D01*
X102780000Y-71530000D02*
X104280000Y-71530000D01*
X105520000Y-72770000D02*
X105680000Y-72770000D01*
X105520000Y-72770000D02*
X105610000Y-72860000D01*
X104280000Y-71530000D02*
X105520000Y-72770000D01*
X105680000Y-72770000D02*
X105680000Y-72770000D01*
X122920000Y-81630000D02*
X122930000Y-81620000D01*
X117460000Y-81540000D02*
X117510000Y-81540000D01*
X122930000Y-81540000D02*
X117510000Y-81540000D01*
X110350000Y-87370000D02*
X110490000Y-87230000D01*
X110350000Y-93050000D02*
X110350000Y-87370000D01*
X110340000Y-87380000D02*
X110490000Y-87230000D01*
X102790000Y-87380000D02*
X110340000Y-87380000D01*
X116910000Y-81540000D02*
X117510000Y-81540000D01*
X114730000Y-81540000D02*
X116910000Y-81540000D01*
X110490000Y-87230000D02*
X110490000Y-85780000D01*
X113890000Y-80900000D02*
X114630000Y-81640000D01*
X113890000Y-74310000D02*
X113890000Y-80900000D01*
X110490000Y-85780000D02*
X114630000Y-81640000D01*
X114630000Y-81640000D02*
X114730000Y-81540000D01*
D19*
G36*
X100113310Y-61634184D02*
G01*
X100119638Y-64164523D01*
X100039850Y-64135604D01*
X99577000Y-64065000D01*
X97827000Y-64065000D01*
X97827000Y-66323000D01*
X97847000Y-66323000D01*
X97847000Y-66577000D01*
X97827000Y-66577000D01*
X97827000Y-68835000D01*
X99577000Y-68835000D01*
X100039850Y-68764396D01*
X100131058Y-68731338D01*
X100145067Y-74333740D01*
X100039850Y-74295604D01*
X99577000Y-74225000D01*
X97827000Y-74225000D01*
X97827000Y-76483000D01*
X97847000Y-76483000D01*
X97847000Y-76737000D01*
X97827000Y-76737000D01*
X97827000Y-78995000D01*
X99577000Y-78995000D01*
X100039850Y-78924396D01*
X100156442Y-78882137D01*
X100159300Y-80025274D01*
X100049850Y-79985604D01*
X99587000Y-79915000D01*
X97837000Y-79915000D01*
X97837000Y-82173000D01*
X97857000Y-82173000D01*
X97857000Y-82427000D01*
X97837000Y-82427000D01*
X97837000Y-84685000D01*
X99587000Y-84685000D01*
X100049850Y-84614396D01*
X100170667Y-84570606D01*
X100184730Y-90194491D01*
X100049850Y-90145604D01*
X99587000Y-90075000D01*
X97837000Y-90075000D01*
X97837000Y-92333000D01*
X97857000Y-92333000D01*
X97857000Y-92587000D01*
X97837000Y-92587000D01*
X97837000Y-94845000D01*
X99587000Y-94845000D01*
X100049850Y-94774396D01*
X100196050Y-94721406D01*
X100202680Y-97372506D01*
X90695000Y-97335654D01*
X90695000Y-92958003D01*
X93627573Y-92958003D01*
X93707947Y-93255368D01*
X93906388Y-93679439D01*
X94183748Y-94056648D01*
X94529369Y-94372498D01*
X94929968Y-94614852D01*
X95370150Y-94774396D01*
X95833000Y-94845000D01*
X97583000Y-94845000D01*
X97583000Y-92587000D01*
X93737375Y-92587000D01*
X93627573Y-92958003D01*
X90695000Y-92958003D01*
X90695000Y-91961997D01*
X93627573Y-91961997D01*
X93737375Y-92333000D01*
X97583000Y-92333000D01*
X97583000Y-90075000D01*
X95833000Y-90075000D01*
X95370150Y-90145604D01*
X94929968Y-90305148D01*
X94529369Y-90547502D01*
X94183748Y-90863352D01*
X93906388Y-91240561D01*
X93707947Y-91664632D01*
X93627573Y-91961997D01*
X90695000Y-91961997D01*
X90695000Y-82798003D01*
X93627573Y-82798003D01*
X93707947Y-83095368D01*
X93906388Y-83519439D01*
X94183748Y-83896648D01*
X94529369Y-84212498D01*
X94929968Y-84454852D01*
X95370150Y-84614396D01*
X95833000Y-84685000D01*
X97583000Y-84685000D01*
X97583000Y-82427000D01*
X93737375Y-82427000D01*
X93627573Y-82798003D01*
X90695000Y-82798003D01*
X90695000Y-81801997D01*
X93627573Y-81801997D01*
X93737375Y-82173000D01*
X97583000Y-82173000D01*
X97583000Y-79915000D01*
X95833000Y-79915000D01*
X95370150Y-79985604D01*
X94929968Y-80145148D01*
X94529369Y-80387502D01*
X94183748Y-80703352D01*
X93906388Y-81080561D01*
X93707947Y-81504632D01*
X93627573Y-81801997D01*
X90695000Y-81801997D01*
X90695000Y-77108003D01*
X93617573Y-77108003D01*
X93697947Y-77405368D01*
X93896388Y-77829439D01*
X94173748Y-78206648D01*
X94519369Y-78522498D01*
X94919968Y-78764852D01*
X95360150Y-78924396D01*
X95823000Y-78995000D01*
X97573000Y-78995000D01*
X97573000Y-76737000D01*
X93727375Y-76737000D01*
X93617573Y-77108003D01*
X90695000Y-77108003D01*
X90695000Y-76111997D01*
X93617573Y-76111997D01*
X93727375Y-76483000D01*
X97573000Y-76483000D01*
X97573000Y-74225000D01*
X95823000Y-74225000D01*
X95360150Y-74295604D01*
X94919968Y-74455148D01*
X94519369Y-74697502D01*
X94173748Y-75013352D01*
X93896388Y-75390561D01*
X93697947Y-75814632D01*
X93617573Y-76111997D01*
X90695000Y-76111997D01*
X90695000Y-66948003D01*
X93617573Y-66948003D01*
X93697947Y-67245368D01*
X93896388Y-67669439D01*
X94173748Y-68046648D01*
X94519369Y-68362498D01*
X94919968Y-68604852D01*
X95360150Y-68764396D01*
X95823000Y-68835000D01*
X97573000Y-68835000D01*
X97573000Y-66577000D01*
X93727375Y-66577000D01*
X93617573Y-66948003D01*
X90695000Y-66948003D01*
X90695000Y-65951997D01*
X93617573Y-65951997D01*
X93727375Y-66323000D01*
X97573000Y-66323000D01*
X97573000Y-64065000D01*
X95823000Y-64065000D01*
X95360150Y-64135604D01*
X94919968Y-64295148D01*
X94519369Y-64537502D01*
X94173748Y-64853352D01*
X93896388Y-65230561D01*
X93697947Y-65654632D01*
X93617573Y-65951997D01*
X90695000Y-65951997D01*
X90695000Y-61422433D01*
X100113310Y-61634184D01*
X100113310Y-61634184D01*
G37*
X100113310Y-61634184D02*
X100119638Y-64164523D01*
X100039850Y-64135604D01*
X99577000Y-64065000D01*
X97827000Y-64065000D01*
X97827000Y-66323000D01*
X97847000Y-66323000D01*
X97847000Y-66577000D01*
X97827000Y-66577000D01*
X97827000Y-68835000D01*
X99577000Y-68835000D01*
X100039850Y-68764396D01*
X100131058Y-68731338D01*
X100145067Y-74333740D01*
X100039850Y-74295604D01*
X99577000Y-74225000D01*
X97827000Y-74225000D01*
X97827000Y-76483000D01*
X97847000Y-76483000D01*
X97847000Y-76737000D01*
X97827000Y-76737000D01*
X97827000Y-78995000D01*
X99577000Y-78995000D01*
X100039850Y-78924396D01*
X100156442Y-78882137D01*
X100159300Y-80025274D01*
X100049850Y-79985604D01*
X99587000Y-79915000D01*
X97837000Y-79915000D01*
X97837000Y-82173000D01*
X97857000Y-82173000D01*
X97857000Y-82427000D01*
X97837000Y-82427000D01*
X97837000Y-84685000D01*
X99587000Y-84685000D01*
X100049850Y-84614396D01*
X100170667Y-84570606D01*
X100184730Y-90194491D01*
X100049850Y-90145604D01*
X99587000Y-90075000D01*
X97837000Y-90075000D01*
X97837000Y-92333000D01*
X97857000Y-92333000D01*
X97857000Y-92587000D01*
X97837000Y-92587000D01*
X97837000Y-94845000D01*
X99587000Y-94845000D01*
X100049850Y-94774396D01*
X100196050Y-94721406D01*
X100202680Y-97372506D01*
X90695000Y-97335654D01*
X90695000Y-92958003D01*
X93627573Y-92958003D01*
X93707947Y-93255368D01*
X93906388Y-93679439D01*
X94183748Y-94056648D01*
X94529369Y-94372498D01*
X94929968Y-94614852D01*
X95370150Y-94774396D01*
X95833000Y-94845000D01*
X97583000Y-94845000D01*
X97583000Y-92587000D01*
X93737375Y-92587000D01*
X93627573Y-92958003D01*
X90695000Y-92958003D01*
X90695000Y-91961997D01*
X93627573Y-91961997D01*
X93737375Y-92333000D01*
X97583000Y-92333000D01*
X97583000Y-90075000D01*
X95833000Y-90075000D01*
X95370150Y-90145604D01*
X94929968Y-90305148D01*
X94529369Y-90547502D01*
X94183748Y-90863352D01*
X93906388Y-91240561D01*
X93707947Y-91664632D01*
X93627573Y-91961997D01*
X90695000Y-91961997D01*
X90695000Y-82798003D01*
X93627573Y-82798003D01*
X93707947Y-83095368D01*
X93906388Y-83519439D01*
X94183748Y-83896648D01*
X94529369Y-84212498D01*
X94929968Y-84454852D01*
X95370150Y-84614396D01*
X95833000Y-84685000D01*
X97583000Y-84685000D01*
X97583000Y-82427000D01*
X93737375Y-82427000D01*
X93627573Y-82798003D01*
X90695000Y-82798003D01*
X90695000Y-81801997D01*
X93627573Y-81801997D01*
X93737375Y-82173000D01*
X97583000Y-82173000D01*
X97583000Y-79915000D01*
X95833000Y-79915000D01*
X95370150Y-79985604D01*
X94929968Y-80145148D01*
X94529369Y-80387502D01*
X94183748Y-80703352D01*
X93906388Y-81080561D01*
X93707947Y-81504632D01*
X93627573Y-81801997D01*
X90695000Y-81801997D01*
X90695000Y-77108003D01*
X93617573Y-77108003D01*
X93697947Y-77405368D01*
X93896388Y-77829439D01*
X94173748Y-78206648D01*
X94519369Y-78522498D01*
X94919968Y-78764852D01*
X95360150Y-78924396D01*
X95823000Y-78995000D01*
X97573000Y-78995000D01*
X97573000Y-76737000D01*
X93727375Y-76737000D01*
X93617573Y-77108003D01*
X90695000Y-77108003D01*
X90695000Y-76111997D01*
X93617573Y-76111997D01*
X93727375Y-76483000D01*
X97573000Y-76483000D01*
X97573000Y-74225000D01*
X95823000Y-74225000D01*
X95360150Y-74295604D01*
X94919968Y-74455148D01*
X94519369Y-74697502D01*
X94173748Y-75013352D01*
X93896388Y-75390561D01*
X93697947Y-75814632D01*
X93617573Y-76111997D01*
X90695000Y-76111997D01*
X90695000Y-66948003D01*
X93617573Y-66948003D01*
X93697947Y-67245368D01*
X93896388Y-67669439D01*
X94173748Y-68046648D01*
X94519369Y-68362498D01*
X94919968Y-68604852D01*
X95360150Y-68764396D01*
X95823000Y-68835000D01*
X97573000Y-68835000D01*
X97573000Y-66577000D01*
X93727375Y-66577000D01*
X93617573Y-66948003D01*
X90695000Y-66948003D01*
X90695000Y-65951997D01*
X93617573Y-65951997D01*
X93727375Y-66323000D01*
X97573000Y-66323000D01*
X97573000Y-64065000D01*
X95823000Y-64065000D01*
X95360150Y-64135604D01*
X94919968Y-64295148D01*
X94519369Y-64537502D01*
X94173748Y-64853352D01*
X93896388Y-65230561D01*
X93697947Y-65654632D01*
X93617573Y-65951997D01*
X90695000Y-65951997D01*
X90695000Y-61422433D01*
X100113310Y-61634184D01*
G36*
X143115379Y-61316993D02*
G01*
X143305001Y-61330538D01*
X143305000Y-89896688D01*
X143234114Y-98090694D01*
X130267000Y-97855285D01*
X130267000Y-92958003D01*
X132267573Y-92958003D01*
X132347947Y-93255368D01*
X132546388Y-93679439D01*
X132823748Y-94056648D01*
X133169369Y-94372498D01*
X133569968Y-94614852D01*
X134010150Y-94774396D01*
X134473000Y-94845000D01*
X136223000Y-94845000D01*
X136223000Y-92587000D01*
X136477000Y-92587000D01*
X136477000Y-94845000D01*
X138227000Y-94845000D01*
X138689850Y-94774396D01*
X139130032Y-94614852D01*
X139530631Y-94372498D01*
X139876252Y-94056648D01*
X140153612Y-93679439D01*
X140352053Y-93255368D01*
X140432427Y-92958003D01*
X140322625Y-92587000D01*
X136477000Y-92587000D01*
X136223000Y-92587000D01*
X132377375Y-92587000D01*
X132267573Y-92958003D01*
X130267000Y-92958003D01*
X130267000Y-91961997D01*
X132267573Y-91961997D01*
X132377375Y-92333000D01*
X136223000Y-92333000D01*
X136223000Y-90075000D01*
X136477000Y-90075000D01*
X136477000Y-92333000D01*
X140322625Y-92333000D01*
X140432427Y-91961997D01*
X140352053Y-91664632D01*
X140153612Y-91240561D01*
X139876252Y-90863352D01*
X139530631Y-90547502D01*
X139130032Y-90305148D01*
X138689850Y-90145604D01*
X138227000Y-90075000D01*
X136477000Y-90075000D01*
X136223000Y-90075000D01*
X134473000Y-90075000D01*
X134010150Y-90145604D01*
X133569968Y-90305148D01*
X133169369Y-90547502D01*
X132823748Y-90863352D01*
X132546388Y-91240561D01*
X132347947Y-91664632D01*
X132267573Y-91961997D01*
X130267000Y-91961997D01*
X130267000Y-91242861D01*
X130415486Y-91302650D01*
X130693000Y-91355000D01*
X131143000Y-91355000D01*
X131143000Y-90047000D01*
X131397000Y-90047000D01*
X131397000Y-91355000D01*
X131847000Y-91355000D01*
X132124514Y-91302650D01*
X132386483Y-91197166D01*
X132622839Y-91042601D01*
X132824500Y-90844895D01*
X132983715Y-90611646D01*
X133094367Y-90351818D01*
X133111904Y-90269039D01*
X132989915Y-90047000D01*
X131397000Y-90047000D01*
X131143000Y-90047000D01*
X131123000Y-90047000D01*
X131123000Y-89793000D01*
X131143000Y-89793000D01*
X131143000Y-89773000D01*
X131397000Y-89773000D01*
X131397000Y-89793000D01*
X132989915Y-89793000D01*
X133111904Y-89570961D01*
X133094367Y-89488182D01*
X132983715Y-89228354D01*
X132824500Y-88995105D01*
X132622839Y-88797399D01*
X132393259Y-88647265D01*
X132521101Y-88578932D01*
X132739608Y-88399608D01*
X132918932Y-88181101D01*
X133052182Y-87931808D01*
X133134236Y-87661309D01*
X133161943Y-87380000D01*
X133134236Y-87098691D01*
X133052182Y-86828192D01*
X132918932Y-86578899D01*
X132739608Y-86360392D01*
X132521101Y-86181068D01*
X132271808Y-86047818D01*
X132001309Y-85965764D01*
X131790492Y-85945000D01*
X130749508Y-85945000D01*
X130538691Y-85965764D01*
X130268192Y-86047818D01*
X130267000Y-86048455D01*
X130267000Y-82798003D01*
X132267573Y-82798003D01*
X132347947Y-83095368D01*
X132546388Y-83519439D01*
X132823748Y-83896648D01*
X133169369Y-84212498D01*
X133569968Y-84454852D01*
X134010150Y-84614396D01*
X134473000Y-84685000D01*
X136223000Y-84685000D01*
X136223000Y-82427000D01*
X136477000Y-82427000D01*
X136477000Y-84685000D01*
X138227000Y-84685000D01*
X138689850Y-84614396D01*
X139130032Y-84454852D01*
X139530631Y-84212498D01*
X139876252Y-83896648D01*
X140153612Y-83519439D01*
X140352053Y-83095368D01*
X140432427Y-82798003D01*
X140322625Y-82427000D01*
X136477000Y-82427000D01*
X136223000Y-82427000D01*
X132377375Y-82427000D01*
X132267573Y-82798003D01*
X130267000Y-82798003D01*
X130267000Y-81801997D01*
X132267573Y-81801997D01*
X132377375Y-82173000D01*
X136223000Y-82173000D01*
X136223000Y-79915000D01*
X136477000Y-79915000D01*
X136477000Y-82173000D01*
X140322625Y-82173000D01*
X140432427Y-81801997D01*
X140352053Y-81504632D01*
X140153612Y-81080561D01*
X139876252Y-80703352D01*
X139530631Y-80387502D01*
X139130032Y-80145148D01*
X138689850Y-79985604D01*
X138227000Y-79915000D01*
X136477000Y-79915000D01*
X136223000Y-79915000D01*
X134473000Y-79915000D01*
X134010150Y-79985604D01*
X133569968Y-80145148D01*
X133169369Y-80387502D01*
X132823748Y-80703352D01*
X132546388Y-81080561D01*
X132347947Y-81504632D01*
X132267573Y-81801997D01*
X130267000Y-81801997D01*
X130267000Y-77158003D01*
X132267573Y-77158003D01*
X132347947Y-77455368D01*
X132546388Y-77879439D01*
X132823748Y-78256648D01*
X133169369Y-78572498D01*
X133569968Y-78814852D01*
X134010150Y-78974396D01*
X134473000Y-79045000D01*
X136223000Y-79045000D01*
X136223000Y-76787000D01*
X136477000Y-76787000D01*
X136477000Y-79045000D01*
X138227000Y-79045000D01*
X138689850Y-78974396D01*
X139130032Y-78814852D01*
X139530631Y-78572498D01*
X139876252Y-78256648D01*
X140153612Y-77879439D01*
X140352053Y-77455368D01*
X140432427Y-77158003D01*
X140322625Y-76787000D01*
X136477000Y-76787000D01*
X136223000Y-76787000D01*
X132377375Y-76787000D01*
X132267573Y-77158003D01*
X130267000Y-77158003D01*
X130267000Y-76161997D01*
X132267573Y-76161997D01*
X132377375Y-76533000D01*
X136223000Y-76533000D01*
X136223000Y-74275000D01*
X136477000Y-74275000D01*
X136477000Y-76533000D01*
X140322625Y-76533000D01*
X140432427Y-76161997D01*
X140352053Y-75864632D01*
X140153612Y-75440561D01*
X139876252Y-75063352D01*
X139530631Y-74747502D01*
X139130032Y-74505148D01*
X138689850Y-74345604D01*
X138227000Y-74275000D01*
X136477000Y-74275000D01*
X136223000Y-74275000D01*
X134473000Y-74275000D01*
X134010150Y-74345604D01*
X133569968Y-74505148D01*
X133169369Y-74747502D01*
X132823748Y-75063352D01*
X132546388Y-75440561D01*
X132347947Y-75864632D01*
X132267573Y-76161997D01*
X130267000Y-76161997D01*
X130267000Y-75442861D01*
X130415486Y-75502650D01*
X130693000Y-75555000D01*
X131143000Y-75555000D01*
X131143000Y-74247000D01*
X131397000Y-74247000D01*
X131397000Y-75555000D01*
X131847000Y-75555000D01*
X132124514Y-75502650D01*
X132386483Y-75397166D01*
X132622839Y-75242601D01*
X132824500Y-75044895D01*
X132983715Y-74811646D01*
X133094367Y-74551818D01*
X133111904Y-74469039D01*
X132989915Y-74247000D01*
X131397000Y-74247000D01*
X131143000Y-74247000D01*
X131123000Y-74247000D01*
X131123000Y-73993000D01*
X131143000Y-73993000D01*
X131143000Y-73973000D01*
X131397000Y-73973000D01*
X131397000Y-73993000D01*
X132989915Y-73993000D01*
X133111904Y-73770961D01*
X133094367Y-73688182D01*
X132983715Y-73428354D01*
X132824500Y-73195105D01*
X132622839Y-72997399D01*
X132393259Y-72847265D01*
X132521101Y-72778932D01*
X132739608Y-72599608D01*
X132918932Y-72381101D01*
X133052182Y-72131808D01*
X133134236Y-71861309D01*
X133161943Y-71580000D01*
X133134236Y-71298691D01*
X133052182Y-71028192D01*
X132918932Y-70778899D01*
X132739608Y-70560392D01*
X132521101Y-70381068D01*
X132271808Y-70247818D01*
X132092746Y-70193501D01*
X132091589Y-70189687D01*
X132009411Y-70035941D01*
X131898817Y-69901183D01*
X131865051Y-69873472D01*
X130267000Y-68275421D01*
X130267000Y-66998003D01*
X132267573Y-66998003D01*
X132347947Y-67295368D01*
X132546388Y-67719439D01*
X132823748Y-68096648D01*
X133169369Y-68412498D01*
X133569968Y-68654852D01*
X134010150Y-68814396D01*
X134473000Y-68885000D01*
X136223000Y-68885000D01*
X136223000Y-66627000D01*
X136477000Y-66627000D01*
X136477000Y-68885000D01*
X138227000Y-68885000D01*
X138689850Y-68814396D01*
X139130032Y-68654852D01*
X139530631Y-68412498D01*
X139876252Y-68096648D01*
X140153612Y-67719439D01*
X140352053Y-67295368D01*
X140432427Y-66998003D01*
X140322625Y-66627000D01*
X136477000Y-66627000D01*
X136223000Y-66627000D01*
X132377375Y-66627000D01*
X132267573Y-66998003D01*
X130267000Y-66998003D01*
X130267000Y-66001997D01*
X132267573Y-66001997D01*
X132377375Y-66373000D01*
X136223000Y-66373000D01*
X136223000Y-64115000D01*
X136477000Y-64115000D01*
X136477000Y-66373000D01*
X140322625Y-66373000D01*
X140432427Y-66001997D01*
X140352053Y-65704632D01*
X140153612Y-65280561D01*
X139876252Y-64903352D01*
X139530631Y-64587502D01*
X139130032Y-64345148D01*
X138689850Y-64185604D01*
X138227000Y-64115000D01*
X136477000Y-64115000D01*
X136223000Y-64115000D01*
X134473000Y-64115000D01*
X134010150Y-64185604D01*
X133569968Y-64345148D01*
X133169369Y-64587502D01*
X132823748Y-64903352D01*
X132546388Y-65280561D01*
X132347947Y-65704632D01*
X132267573Y-66001997D01*
X130267000Y-66001997D01*
X130267000Y-61297196D01*
X143115379Y-61316993D01*
X143115379Y-61316993D01*
G37*
X143115379Y-61316993D02*
X143305001Y-61330538D01*
X143305000Y-89896688D01*
X143234114Y-98090694D01*
X130267000Y-97855285D01*
X130267000Y-92958003D01*
X132267573Y-92958003D01*
X132347947Y-93255368D01*
X132546388Y-93679439D01*
X132823748Y-94056648D01*
X133169369Y-94372498D01*
X133569968Y-94614852D01*
X134010150Y-94774396D01*
X134473000Y-94845000D01*
X136223000Y-94845000D01*
X136223000Y-92587000D01*
X136477000Y-92587000D01*
X136477000Y-94845000D01*
X138227000Y-94845000D01*
X138689850Y-94774396D01*
X139130032Y-94614852D01*
X139530631Y-94372498D01*
X139876252Y-94056648D01*
X140153612Y-93679439D01*
X140352053Y-93255368D01*
X140432427Y-92958003D01*
X140322625Y-92587000D01*
X136477000Y-92587000D01*
X136223000Y-92587000D01*
X132377375Y-92587000D01*
X132267573Y-92958003D01*
X130267000Y-92958003D01*
X130267000Y-91961997D01*
X132267573Y-91961997D01*
X132377375Y-92333000D01*
X136223000Y-92333000D01*
X136223000Y-90075000D01*
X136477000Y-90075000D01*
X136477000Y-92333000D01*
X140322625Y-92333000D01*
X140432427Y-91961997D01*
X140352053Y-91664632D01*
X140153612Y-91240561D01*
X139876252Y-90863352D01*
X139530631Y-90547502D01*
X139130032Y-90305148D01*
X138689850Y-90145604D01*
X138227000Y-90075000D01*
X136477000Y-90075000D01*
X136223000Y-90075000D01*
X134473000Y-90075000D01*
X134010150Y-90145604D01*
X133569968Y-90305148D01*
X133169369Y-90547502D01*
X132823748Y-90863352D01*
X132546388Y-91240561D01*
X132347947Y-91664632D01*
X132267573Y-91961997D01*
X130267000Y-91961997D01*
X130267000Y-91242861D01*
X130415486Y-91302650D01*
X130693000Y-91355000D01*
X131143000Y-91355000D01*
X131143000Y-90047000D01*
X131397000Y-90047000D01*
X131397000Y-91355000D01*
X131847000Y-91355000D01*
X132124514Y-91302650D01*
X132386483Y-91197166D01*
X132622839Y-91042601D01*
X132824500Y-90844895D01*
X132983715Y-90611646D01*
X133094367Y-90351818D01*
X133111904Y-90269039D01*
X132989915Y-90047000D01*
X131397000Y-90047000D01*
X131143000Y-90047000D01*
X131123000Y-90047000D01*
X131123000Y-89793000D01*
X131143000Y-89793000D01*
X131143000Y-89773000D01*
X131397000Y-89773000D01*
X131397000Y-89793000D01*
X132989915Y-89793000D01*
X133111904Y-89570961D01*
X133094367Y-89488182D01*
X132983715Y-89228354D01*
X132824500Y-88995105D01*
X132622839Y-88797399D01*
X132393259Y-88647265D01*
X132521101Y-88578932D01*
X132739608Y-88399608D01*
X132918932Y-88181101D01*
X133052182Y-87931808D01*
X133134236Y-87661309D01*
X133161943Y-87380000D01*
X133134236Y-87098691D01*
X133052182Y-86828192D01*
X132918932Y-86578899D01*
X132739608Y-86360392D01*
X132521101Y-86181068D01*
X132271808Y-86047818D01*
X132001309Y-85965764D01*
X131790492Y-85945000D01*
X130749508Y-85945000D01*
X130538691Y-85965764D01*
X130268192Y-86047818D01*
X130267000Y-86048455D01*
X130267000Y-82798003D01*
X132267573Y-82798003D01*
X132347947Y-83095368D01*
X132546388Y-83519439D01*
X132823748Y-83896648D01*
X133169369Y-84212498D01*
X133569968Y-84454852D01*
X134010150Y-84614396D01*
X134473000Y-84685000D01*
X136223000Y-84685000D01*
X136223000Y-82427000D01*
X136477000Y-82427000D01*
X136477000Y-84685000D01*
X138227000Y-84685000D01*
X138689850Y-84614396D01*
X139130032Y-84454852D01*
X139530631Y-84212498D01*
X139876252Y-83896648D01*
X140153612Y-83519439D01*
X140352053Y-83095368D01*
X140432427Y-82798003D01*
X140322625Y-82427000D01*
X136477000Y-82427000D01*
X136223000Y-82427000D01*
X132377375Y-82427000D01*
X132267573Y-82798003D01*
X130267000Y-82798003D01*
X130267000Y-81801997D01*
X132267573Y-81801997D01*
X132377375Y-82173000D01*
X136223000Y-82173000D01*
X136223000Y-79915000D01*
X136477000Y-79915000D01*
X136477000Y-82173000D01*
X140322625Y-82173000D01*
X140432427Y-81801997D01*
X140352053Y-81504632D01*
X140153612Y-81080561D01*
X139876252Y-80703352D01*
X139530631Y-80387502D01*
X139130032Y-80145148D01*
X138689850Y-79985604D01*
X138227000Y-79915000D01*
X136477000Y-79915000D01*
X136223000Y-79915000D01*
X134473000Y-79915000D01*
X134010150Y-79985604D01*
X133569968Y-80145148D01*
X133169369Y-80387502D01*
X132823748Y-80703352D01*
X132546388Y-81080561D01*
X132347947Y-81504632D01*
X132267573Y-81801997D01*
X130267000Y-81801997D01*
X130267000Y-77158003D01*
X132267573Y-77158003D01*
X132347947Y-77455368D01*
X132546388Y-77879439D01*
X132823748Y-78256648D01*
X133169369Y-78572498D01*
X133569968Y-78814852D01*
X134010150Y-78974396D01*
X134473000Y-79045000D01*
X136223000Y-79045000D01*
X136223000Y-76787000D01*
X136477000Y-76787000D01*
X136477000Y-79045000D01*
X138227000Y-79045000D01*
X138689850Y-78974396D01*
X139130032Y-78814852D01*
X139530631Y-78572498D01*
X139876252Y-78256648D01*
X140153612Y-77879439D01*
X140352053Y-77455368D01*
X140432427Y-77158003D01*
X140322625Y-76787000D01*
X136477000Y-76787000D01*
X136223000Y-76787000D01*
X132377375Y-76787000D01*
X132267573Y-77158003D01*
X130267000Y-77158003D01*
X130267000Y-76161997D01*
X132267573Y-76161997D01*
X132377375Y-76533000D01*
X136223000Y-76533000D01*
X136223000Y-74275000D01*
X136477000Y-74275000D01*
X136477000Y-76533000D01*
X140322625Y-76533000D01*
X140432427Y-76161997D01*
X140352053Y-75864632D01*
X140153612Y-75440561D01*
X139876252Y-75063352D01*
X139530631Y-74747502D01*
X139130032Y-74505148D01*
X138689850Y-74345604D01*
X138227000Y-74275000D01*
X136477000Y-74275000D01*
X136223000Y-74275000D01*
X134473000Y-74275000D01*
X134010150Y-74345604D01*
X133569968Y-74505148D01*
X133169369Y-74747502D01*
X132823748Y-75063352D01*
X132546388Y-75440561D01*
X132347947Y-75864632D01*
X132267573Y-76161997D01*
X130267000Y-76161997D01*
X130267000Y-75442861D01*
X130415486Y-75502650D01*
X130693000Y-75555000D01*
X131143000Y-75555000D01*
X131143000Y-74247000D01*
X131397000Y-74247000D01*
X131397000Y-75555000D01*
X131847000Y-75555000D01*
X132124514Y-75502650D01*
X132386483Y-75397166D01*
X132622839Y-75242601D01*
X132824500Y-75044895D01*
X132983715Y-74811646D01*
X133094367Y-74551818D01*
X133111904Y-74469039D01*
X132989915Y-74247000D01*
X131397000Y-74247000D01*
X131143000Y-74247000D01*
X131123000Y-74247000D01*
X131123000Y-73993000D01*
X131143000Y-73993000D01*
X131143000Y-73973000D01*
X131397000Y-73973000D01*
X131397000Y-73993000D01*
X132989915Y-73993000D01*
X133111904Y-73770961D01*
X133094367Y-73688182D01*
X132983715Y-73428354D01*
X132824500Y-73195105D01*
X132622839Y-72997399D01*
X132393259Y-72847265D01*
X132521101Y-72778932D01*
X132739608Y-72599608D01*
X132918932Y-72381101D01*
X133052182Y-72131808D01*
X133134236Y-71861309D01*
X133161943Y-71580000D01*
X133134236Y-71298691D01*
X133052182Y-71028192D01*
X132918932Y-70778899D01*
X132739608Y-70560392D01*
X132521101Y-70381068D01*
X132271808Y-70247818D01*
X132092746Y-70193501D01*
X132091589Y-70189687D01*
X132009411Y-70035941D01*
X131898817Y-69901183D01*
X131865051Y-69873472D01*
X130267000Y-68275421D01*
X130267000Y-66998003D01*
X132267573Y-66998003D01*
X132347947Y-67295368D01*
X132546388Y-67719439D01*
X132823748Y-68096648D01*
X133169369Y-68412498D01*
X133569968Y-68654852D01*
X134010150Y-68814396D01*
X134473000Y-68885000D01*
X136223000Y-68885000D01*
X136223000Y-66627000D01*
X136477000Y-66627000D01*
X136477000Y-68885000D01*
X138227000Y-68885000D01*
X138689850Y-68814396D01*
X139130032Y-68654852D01*
X139530631Y-68412498D01*
X139876252Y-68096648D01*
X140153612Y-67719439D01*
X140352053Y-67295368D01*
X140432427Y-66998003D01*
X140322625Y-66627000D01*
X136477000Y-66627000D01*
X136223000Y-66627000D01*
X132377375Y-66627000D01*
X132267573Y-66998003D01*
X130267000Y-66998003D01*
X130267000Y-66001997D01*
X132267573Y-66001997D01*
X132377375Y-66373000D01*
X136223000Y-66373000D01*
X136223000Y-64115000D01*
X136477000Y-64115000D01*
X136477000Y-66373000D01*
X140322625Y-66373000D01*
X140432427Y-66001997D01*
X140352053Y-65704632D01*
X140153612Y-65280561D01*
X139876252Y-64903352D01*
X139530631Y-64587502D01*
X139130032Y-64345148D01*
X138689850Y-64185604D01*
X138227000Y-64115000D01*
X136477000Y-64115000D01*
X136223000Y-64115000D01*
X134473000Y-64115000D01*
X134010150Y-64185604D01*
X133569968Y-64345148D01*
X133169369Y-64587502D01*
X132823748Y-64903352D01*
X132546388Y-65280561D01*
X132347947Y-65704632D01*
X132267573Y-66001997D01*
X130267000Y-66001997D01*
X130267000Y-61297196D01*
X143115379Y-61316993D01*
G36*
X143305001Y-61243889D02*
G01*
X90843609Y-61442493D01*
X90881404Y-60695000D01*
X143305001Y-60695000D01*
X143305001Y-61243889D01*
X143305001Y-61243889D01*
G37*
X143305001Y-61243889D02*
X90843609Y-61442493D01*
X90881404Y-60695000D01*
X143305001Y-60695000D01*
X143305001Y-61243889D01*
G36*
X143259054Y-98085443D02*
G01*
X143269923Y-98305000D01*
X91020555Y-98305000D01*
X91026193Y-97408645D01*
X143259054Y-98085443D01*
X143259054Y-98085443D01*
G37*
X143259054Y-98085443D02*
X143269923Y-98305000D01*
X91020555Y-98305000D01*
X91026193Y-97408645D01*
X143259054Y-98085443D01*
M02*
