G04 #@! TF.GenerationSoftware,KiCad,Pcbnew,(5.1.4)-1*
G04 #@! TF.CreationDate,2019-10-21T12:38:33+02:00*
G04 #@! TF.ProjectId,Phaseshifter,50686173-6573-4686-9966-7465722e6b69,rev?*
G04 #@! TF.SameCoordinates,Original*
G04 #@! TF.FileFunction,Soldermask,Top*
G04 #@! TF.FilePolarity,Negative*
%FSLAX46Y46*%
G04 Gerber Fmt 4.6, Leading zero omitted, Abs format (unit mm)*
G04 Created by KiCad (PCBNEW (5.1.4)-1) date 2019-10-21 12:38:33*
%MOMM*%
%LPD*%
G04 APERTURE LIST*
%ADD10C,0.100000*%
G04 APERTURE END LIST*
D10*
G36*
X99766669Y-91017686D02*
G01*
X99943058Y-91035059D01*
X100282548Y-91138042D01*
X100282550Y-91138043D01*
X100595422Y-91305277D01*
X100595424Y-91305278D01*
X100595423Y-91305278D01*
X100869661Y-91530339D01*
X101094722Y-91804577D01*
X101261958Y-92117452D01*
X101364941Y-92456942D01*
X101399714Y-92810000D01*
X101364941Y-93163058D01*
X101261958Y-93502548D01*
X101261957Y-93502550D01*
X101094723Y-93815422D01*
X100869661Y-94089661D01*
X100595422Y-94314723D01*
X100282550Y-94481957D01*
X100282548Y-94481958D01*
X99943058Y-94584941D01*
X99766669Y-94602314D01*
X99678476Y-94611000D01*
X96001524Y-94611000D01*
X95913331Y-94602314D01*
X95736942Y-94584941D01*
X95397452Y-94481958D01*
X95397450Y-94481957D01*
X95084578Y-94314723D01*
X94810339Y-94089661D01*
X94585277Y-93815422D01*
X94418043Y-93502550D01*
X94418042Y-93502548D01*
X94315059Y-93163058D01*
X94280286Y-92810000D01*
X94315059Y-92456942D01*
X94418042Y-92117452D01*
X94585278Y-91804577D01*
X94810339Y-91530339D01*
X95084577Y-91305278D01*
X95084576Y-91305278D01*
X95084578Y-91305277D01*
X95397450Y-91138043D01*
X95397452Y-91138042D01*
X95736942Y-91035059D01*
X95913331Y-91017686D01*
X96001524Y-91009000D01*
X99678476Y-91009000D01*
X99766669Y-91017686D01*
X99766669Y-91017686D01*
G37*
G36*
X103536823Y-89431313D02*
G01*
X103697242Y-89479976D01*
X103829906Y-89550886D01*
X103845078Y-89558996D01*
X103974659Y-89665341D01*
X104081004Y-89794922D01*
X104081005Y-89794924D01*
X104160024Y-89942758D01*
X104208687Y-90103177D01*
X104225117Y-90270000D01*
X104208687Y-90436823D01*
X104160024Y-90597242D01*
X104089114Y-90729906D01*
X104081004Y-90745078D01*
X103974659Y-90874659D01*
X103845078Y-90981004D01*
X103845076Y-90981005D01*
X103697242Y-91060024D01*
X103536823Y-91108687D01*
X103411804Y-91121000D01*
X102428196Y-91121000D01*
X102303177Y-91108687D01*
X102142758Y-91060024D01*
X101994924Y-90981005D01*
X101994922Y-90981004D01*
X101865341Y-90874659D01*
X101758996Y-90745078D01*
X101750886Y-90729906D01*
X101679976Y-90597242D01*
X101631313Y-90436823D01*
X101614883Y-90270000D01*
X101631313Y-90103177D01*
X101679976Y-89942758D01*
X101758995Y-89794924D01*
X101758996Y-89794922D01*
X101865341Y-89665341D01*
X101994922Y-89558996D01*
X102010094Y-89550886D01*
X102142758Y-89479976D01*
X102303177Y-89431313D01*
X102428196Y-89419000D01*
X103411804Y-89419000D01*
X103536823Y-89431313D01*
X103536823Y-89431313D01*
G37*
G36*
X103536823Y-86891313D02*
G01*
X103697242Y-86939976D01*
X103829906Y-87010886D01*
X103845078Y-87018996D01*
X103974659Y-87125341D01*
X104081004Y-87254922D01*
X104081005Y-87254924D01*
X104160024Y-87402758D01*
X104208687Y-87563177D01*
X104225117Y-87730000D01*
X104208687Y-87896823D01*
X104160024Y-88057242D01*
X104089114Y-88189906D01*
X104081004Y-88205078D01*
X103974659Y-88334659D01*
X103845078Y-88441004D01*
X103845076Y-88441005D01*
X103697242Y-88520024D01*
X103536823Y-88568687D01*
X103411804Y-88581000D01*
X102428196Y-88581000D01*
X102303177Y-88568687D01*
X102142758Y-88520024D01*
X101994924Y-88441005D01*
X101994922Y-88441004D01*
X101865341Y-88334659D01*
X101758996Y-88205078D01*
X101750886Y-88189906D01*
X101679976Y-88057242D01*
X101631313Y-87896823D01*
X101614883Y-87730000D01*
X101631313Y-87563177D01*
X101679976Y-87402758D01*
X101758995Y-87254924D01*
X101758996Y-87254922D01*
X101865341Y-87125341D01*
X101994922Y-87018996D01*
X102010094Y-87010886D01*
X102142758Y-86939976D01*
X102303177Y-86891313D01*
X102428196Y-86879000D01*
X103411804Y-86879000D01*
X103536823Y-86891313D01*
X103536823Y-86891313D01*
G37*
G36*
X138256669Y-82817686D02*
G01*
X138433058Y-82835059D01*
X138772548Y-82938042D01*
X138772550Y-82938043D01*
X139085422Y-83105277D01*
X139359661Y-83330339D01*
X139584723Y-83604578D01*
X139611900Y-83655423D01*
X139751958Y-83917452D01*
X139854941Y-84256942D01*
X139889714Y-84610000D01*
X139854941Y-84963058D01*
X139751958Y-85302548D01*
X139751957Y-85302550D01*
X139584723Y-85615422D01*
X139359661Y-85889661D01*
X139085422Y-86114723D01*
X138772550Y-86281957D01*
X138772548Y-86281958D01*
X138433058Y-86384941D01*
X138256669Y-86402314D01*
X138168476Y-86411000D01*
X134491524Y-86411000D01*
X134403331Y-86402314D01*
X134226942Y-86384941D01*
X133887452Y-86281958D01*
X133887450Y-86281957D01*
X133574578Y-86114723D01*
X133300339Y-85889661D01*
X133075277Y-85615422D01*
X132908043Y-85302550D01*
X132908042Y-85302548D01*
X132805059Y-84963058D01*
X132770286Y-84610000D01*
X132805059Y-84256942D01*
X132908042Y-83917452D01*
X133048100Y-83655423D01*
X133075277Y-83604578D01*
X133300339Y-83330339D01*
X133574578Y-83105277D01*
X133887450Y-82938043D01*
X133887452Y-82938042D01*
X134226942Y-82835059D01*
X134403331Y-82817686D01*
X134491524Y-82809000D01*
X138168476Y-82809000D01*
X138256669Y-82817686D01*
X138256669Y-82817686D01*
G37*
G36*
X125566000Y-85391000D02*
G01*
X123814000Y-85391000D01*
X123814000Y-82749000D01*
X125566000Y-82749000D01*
X125566000Y-85391000D01*
X125566000Y-85391000D01*
G37*
G36*
X123026000Y-85391000D02*
G01*
X121274000Y-85391000D01*
X121274000Y-82749000D01*
X123026000Y-82749000D01*
X123026000Y-85391000D01*
X123026000Y-85391000D01*
G37*
G36*
X120486000Y-85391000D02*
G01*
X118734000Y-85391000D01*
X118734000Y-82749000D01*
X120486000Y-82749000D01*
X120486000Y-85391000D01*
X120486000Y-85391000D01*
G37*
G36*
X117946000Y-85391000D02*
G01*
X116194000Y-85391000D01*
X116194000Y-82749000D01*
X117946000Y-82749000D01*
X117946000Y-85391000D01*
X117946000Y-85391000D01*
G37*
G36*
X115406000Y-85391000D02*
G01*
X113654000Y-85391000D01*
X113654000Y-82749000D01*
X115406000Y-82749000D01*
X115406000Y-85391000D01*
X115406000Y-85391000D01*
G37*
G36*
X112866000Y-85391000D02*
G01*
X111114000Y-85391000D01*
X111114000Y-82749000D01*
X112866000Y-82749000D01*
X112866000Y-85391000D01*
X112866000Y-85391000D01*
G37*
G36*
X110326000Y-85391000D02*
G01*
X108574000Y-85391000D01*
X108574000Y-82749000D01*
X110326000Y-82749000D01*
X110326000Y-85391000D01*
X110326000Y-85391000D01*
G37*
G36*
X99766669Y-80857686D02*
G01*
X99943058Y-80875059D01*
X100282548Y-80978042D01*
X100282550Y-80978043D01*
X100595422Y-81145277D01*
X100595424Y-81145278D01*
X100595423Y-81145278D01*
X100869661Y-81370339D01*
X101094722Y-81644577D01*
X101261958Y-81957452D01*
X101364941Y-82296942D01*
X101399714Y-82650000D01*
X101364941Y-83003058D01*
X101261958Y-83342548D01*
X101261957Y-83342550D01*
X101094723Y-83655422D01*
X100869661Y-83929661D01*
X100595422Y-84154723D01*
X100404184Y-84256942D01*
X100282548Y-84321958D01*
X99943058Y-84424941D01*
X99766669Y-84442314D01*
X99678476Y-84451000D01*
X96001524Y-84451000D01*
X95913331Y-84442314D01*
X95736942Y-84424941D01*
X95397452Y-84321958D01*
X95275816Y-84256942D01*
X95084578Y-84154723D01*
X94810339Y-83929661D01*
X94585277Y-83655422D01*
X94418043Y-83342550D01*
X94418042Y-83342548D01*
X94315059Y-83003058D01*
X94280286Y-82650000D01*
X94315059Y-82296942D01*
X94418042Y-81957452D01*
X94585278Y-81644577D01*
X94810339Y-81370339D01*
X95084577Y-81145278D01*
X95084576Y-81145278D01*
X95084578Y-81145277D01*
X95397450Y-80978043D01*
X95397452Y-80978042D01*
X95736942Y-80875059D01*
X95913331Y-80857686D01*
X96001524Y-80849000D01*
X99678476Y-80849000D01*
X99766669Y-80857686D01*
X99766669Y-80857686D01*
G37*
G36*
X131866823Y-78691313D02*
G01*
X132027242Y-78739976D01*
X132159906Y-78810886D01*
X132175078Y-78818996D01*
X132304659Y-78925341D01*
X132411004Y-79054922D01*
X132411005Y-79054924D01*
X132490024Y-79202758D01*
X132538687Y-79363177D01*
X132555117Y-79530000D01*
X132538687Y-79696823D01*
X132490024Y-79857242D01*
X132419114Y-79989906D01*
X132411004Y-80005078D01*
X132304659Y-80134659D01*
X132175078Y-80241004D01*
X132175076Y-80241005D01*
X132027242Y-80320024D01*
X131866823Y-80368687D01*
X131741804Y-80381000D01*
X130758196Y-80381000D01*
X130633177Y-80368687D01*
X130472758Y-80320024D01*
X130324924Y-80241005D01*
X130324922Y-80241004D01*
X130195341Y-80134659D01*
X130088996Y-80005078D01*
X130080886Y-79989906D01*
X130009976Y-79857242D01*
X129961313Y-79696823D01*
X129944883Y-79530000D01*
X129961313Y-79363177D01*
X130009976Y-79202758D01*
X130088995Y-79054924D01*
X130088996Y-79054922D01*
X130195341Y-78925341D01*
X130324922Y-78818996D01*
X130340094Y-78810886D01*
X130472758Y-78739976D01*
X130633177Y-78691313D01*
X130758196Y-78679000D01*
X131741804Y-78679000D01*
X131866823Y-78691313D01*
X131866823Y-78691313D01*
G37*
G36*
X99806669Y-74677686D02*
G01*
X99983058Y-74695059D01*
X100322548Y-74798042D01*
X100322550Y-74798043D01*
X100635422Y-74965277D01*
X100635424Y-74965278D01*
X100635423Y-74965278D01*
X100909661Y-75190339D01*
X101134722Y-75464577D01*
X101301958Y-75777452D01*
X101404941Y-76116942D01*
X101439714Y-76470000D01*
X101404941Y-76823058D01*
X101303694Y-77156825D01*
X101301957Y-77162550D01*
X101134723Y-77475422D01*
X100909661Y-77749661D01*
X100635422Y-77974723D01*
X100322550Y-78141957D01*
X100322548Y-78141958D01*
X99983058Y-78244941D01*
X99806669Y-78262314D01*
X99718476Y-78271000D01*
X96041524Y-78271000D01*
X95953331Y-78262314D01*
X95776942Y-78244941D01*
X95437452Y-78141958D01*
X95437450Y-78141957D01*
X95124578Y-77974723D01*
X94850339Y-77749661D01*
X94625277Y-77475422D01*
X94458043Y-77162550D01*
X94456306Y-77156825D01*
X94355059Y-76823058D01*
X94320286Y-76470000D01*
X94355059Y-76116942D01*
X94458042Y-75777452D01*
X94625278Y-75464577D01*
X94850339Y-75190339D01*
X95124577Y-74965278D01*
X95124576Y-74965278D01*
X95124578Y-74965277D01*
X95437450Y-74798043D01*
X95437452Y-74798042D01*
X95776942Y-74695059D01*
X95953331Y-74677686D01*
X96041524Y-74669000D01*
X99718476Y-74669000D01*
X99806669Y-74677686D01*
X99806669Y-74677686D01*
G37*
G36*
X131866823Y-76151313D02*
G01*
X132027242Y-76199976D01*
X132122701Y-76251000D01*
X132175078Y-76278996D01*
X132304659Y-76385341D01*
X132411004Y-76514922D01*
X132411005Y-76514924D01*
X132490024Y-76662758D01*
X132538687Y-76823177D01*
X132555117Y-76990000D01*
X132538687Y-77156823D01*
X132490024Y-77317242D01*
X132419114Y-77449906D01*
X132411004Y-77465078D01*
X132304659Y-77594659D01*
X132175078Y-77701004D01*
X132175076Y-77701005D01*
X132027242Y-77780024D01*
X131866823Y-77828687D01*
X131741804Y-77841000D01*
X130758196Y-77841000D01*
X130633177Y-77828687D01*
X130472758Y-77780024D01*
X130324924Y-77701005D01*
X130324922Y-77701004D01*
X130195341Y-77594659D01*
X130088996Y-77465078D01*
X130080886Y-77449906D01*
X130009976Y-77317242D01*
X129961313Y-77156823D01*
X129944883Y-76990000D01*
X129961313Y-76823177D01*
X130009976Y-76662758D01*
X130088995Y-76514924D01*
X130088996Y-76514922D01*
X130195341Y-76385341D01*
X130324922Y-76278996D01*
X130377299Y-76251000D01*
X130472758Y-76199976D01*
X130633177Y-76151313D01*
X130758196Y-76139000D01*
X131741804Y-76139000D01*
X131866823Y-76151313D01*
X131866823Y-76151313D01*
G37*
G36*
X138256669Y-72657686D02*
G01*
X138433058Y-72675059D01*
X138772548Y-72778042D01*
X138772550Y-72778043D01*
X139085422Y-72945277D01*
X139085424Y-72945278D01*
X139085423Y-72945278D01*
X139359661Y-73170339D01*
X139584722Y-73444577D01*
X139751958Y-73757452D01*
X139854941Y-74096942D01*
X139889714Y-74450000D01*
X139854941Y-74803058D01*
X139805732Y-74965277D01*
X139751957Y-75142550D01*
X139584723Y-75455422D01*
X139359661Y-75729661D01*
X139085422Y-75954723D01*
X138772550Y-76121957D01*
X138772548Y-76121958D01*
X138433058Y-76224941D01*
X138256669Y-76242314D01*
X138168476Y-76251000D01*
X134491524Y-76251000D01*
X134403331Y-76242314D01*
X134226942Y-76224941D01*
X133887452Y-76121958D01*
X133887450Y-76121957D01*
X133574578Y-75954723D01*
X133300339Y-75729661D01*
X133075277Y-75455422D01*
X132908043Y-75142550D01*
X132854268Y-74965277D01*
X132805059Y-74803058D01*
X132770286Y-74450000D01*
X132805059Y-74096942D01*
X132908042Y-73757452D01*
X133075278Y-73444577D01*
X133300339Y-73170339D01*
X133574577Y-72945278D01*
X133574576Y-72945278D01*
X133574578Y-72945277D01*
X133887450Y-72778043D01*
X133887452Y-72778042D01*
X134226942Y-72675059D01*
X134403331Y-72657686D01*
X134491524Y-72649000D01*
X138168476Y-72649000D01*
X138256669Y-72657686D01*
X138256669Y-72657686D01*
G37*
G36*
X110326000Y-75991000D02*
G01*
X108574000Y-75991000D01*
X108574000Y-73349000D01*
X110326000Y-73349000D01*
X110326000Y-75991000D01*
X110326000Y-75991000D01*
G37*
G36*
X125566000Y-75991000D02*
G01*
X123814000Y-75991000D01*
X123814000Y-73349000D01*
X125566000Y-73349000D01*
X125566000Y-75991000D01*
X125566000Y-75991000D01*
G37*
G36*
X123026000Y-75991000D02*
G01*
X121274000Y-75991000D01*
X121274000Y-73349000D01*
X123026000Y-73349000D01*
X123026000Y-75991000D01*
X123026000Y-75991000D01*
G37*
G36*
X120486000Y-75991000D02*
G01*
X118734000Y-75991000D01*
X118734000Y-73349000D01*
X120486000Y-73349000D01*
X120486000Y-75991000D01*
X120486000Y-75991000D01*
G37*
G36*
X117946000Y-75991000D02*
G01*
X116194000Y-75991000D01*
X116194000Y-73349000D01*
X117946000Y-73349000D01*
X117946000Y-75991000D01*
X117946000Y-75991000D01*
G37*
G36*
X115406000Y-75991000D02*
G01*
X113654000Y-75991000D01*
X113654000Y-73349000D01*
X115406000Y-73349000D01*
X115406000Y-75991000D01*
X115406000Y-75991000D01*
G37*
G36*
X112866000Y-75991000D02*
G01*
X111114000Y-75991000D01*
X111114000Y-73349000D01*
X112866000Y-73349000D01*
X112866000Y-75991000D01*
X112866000Y-75991000D01*
G37*
G36*
X103576823Y-73091313D02*
G01*
X103737242Y-73139976D01*
X103869906Y-73210886D01*
X103885078Y-73218996D01*
X104014659Y-73325341D01*
X104121004Y-73454922D01*
X104121005Y-73454924D01*
X104200024Y-73602758D01*
X104248687Y-73763177D01*
X104265117Y-73930000D01*
X104248687Y-74096823D01*
X104200024Y-74257242D01*
X104129114Y-74389906D01*
X104121004Y-74405078D01*
X104014659Y-74534659D01*
X103885078Y-74641004D01*
X103885076Y-74641005D01*
X103737242Y-74720024D01*
X103576823Y-74768687D01*
X103451804Y-74781000D01*
X102468196Y-74781000D01*
X102343177Y-74768687D01*
X102182758Y-74720024D01*
X102034924Y-74641005D01*
X102034922Y-74641004D01*
X101905341Y-74534659D01*
X101798996Y-74405078D01*
X101790886Y-74389906D01*
X101719976Y-74257242D01*
X101671313Y-74096823D01*
X101654883Y-73930000D01*
X101671313Y-73763177D01*
X101719976Y-73602758D01*
X101798995Y-73454924D01*
X101798996Y-73454922D01*
X101905341Y-73325341D01*
X102034922Y-73218996D01*
X102050094Y-73210886D01*
X102182758Y-73139976D01*
X102343177Y-73091313D01*
X102468196Y-73079000D01*
X103451804Y-73079000D01*
X103576823Y-73091313D01*
X103576823Y-73091313D01*
G37*
G36*
X103576823Y-70551313D02*
G01*
X103737242Y-70599976D01*
X103869906Y-70670886D01*
X103885078Y-70678996D01*
X104014659Y-70785341D01*
X104121004Y-70914922D01*
X104121005Y-70914924D01*
X104200024Y-71062758D01*
X104248687Y-71223177D01*
X104265117Y-71390000D01*
X104248687Y-71556823D01*
X104200024Y-71717242D01*
X104129114Y-71849906D01*
X104121004Y-71865078D01*
X104014659Y-71994659D01*
X103885078Y-72101004D01*
X103885076Y-72101005D01*
X103737242Y-72180024D01*
X103576823Y-72228687D01*
X103451804Y-72241000D01*
X102468196Y-72241000D01*
X102343177Y-72228687D01*
X102182758Y-72180024D01*
X102034924Y-72101005D01*
X102034922Y-72101004D01*
X101905341Y-71994659D01*
X101798996Y-71865078D01*
X101790886Y-71849906D01*
X101719976Y-71717242D01*
X101671313Y-71556823D01*
X101654883Y-71390000D01*
X101671313Y-71223177D01*
X101719976Y-71062758D01*
X101798995Y-70914924D01*
X101798996Y-70914922D01*
X101905341Y-70785341D01*
X102034922Y-70678996D01*
X102050094Y-70670886D01*
X102182758Y-70599976D01*
X102343177Y-70551313D01*
X102468196Y-70539000D01*
X103451804Y-70539000D01*
X103576823Y-70551313D01*
X103576823Y-70551313D01*
G37*
G36*
X99806669Y-64517686D02*
G01*
X99983058Y-64535059D01*
X100322548Y-64638042D01*
X100322550Y-64638043D01*
X100635422Y-64805277D01*
X100635424Y-64805278D01*
X100635423Y-64805278D01*
X100909661Y-65030339D01*
X101134722Y-65304577D01*
X101301958Y-65617452D01*
X101404941Y-65956942D01*
X101439714Y-66310000D01*
X101404941Y-66663058D01*
X101301958Y-67002548D01*
X101301957Y-67002550D01*
X101134723Y-67315422D01*
X100909661Y-67589661D01*
X100635422Y-67814723D01*
X100322550Y-67981957D01*
X100322548Y-67981958D01*
X99983058Y-68084941D01*
X99806669Y-68102314D01*
X99718476Y-68111000D01*
X96041524Y-68111000D01*
X95953331Y-68102314D01*
X95776942Y-68084941D01*
X95437452Y-67981958D01*
X95437450Y-67981957D01*
X95124578Y-67814723D01*
X94850339Y-67589661D01*
X94625277Y-67315422D01*
X94458043Y-67002550D01*
X94458042Y-67002548D01*
X94355059Y-66663058D01*
X94320286Y-66310000D01*
X94355059Y-65956942D01*
X94458042Y-65617452D01*
X94625278Y-65304577D01*
X94850339Y-65030339D01*
X95124577Y-64805278D01*
X95124576Y-64805278D01*
X95124578Y-64805277D01*
X95437450Y-64638043D01*
X95437452Y-64638042D01*
X95776942Y-64535059D01*
X95953331Y-64517686D01*
X96041524Y-64509000D01*
X99718476Y-64509000D01*
X99806669Y-64517686D01*
X99806669Y-64517686D01*
G37*
M02*
