<?xml version="1.0" encoding="UTF-8" standalone="no"?>
<svg id="Lissajous_curve"
   version="1.1"
   baseProfile="full"
   xmlns="http://www.w3.org/2000/svg"
   xmlns:xlink="http://www.w3.org/1999/xlink"
   width="160"
   height="120">

  <title>Lissajous_1_1_0.25.svg</title>

  <desc>
     Lissajous-curves

     x(t) = sin(pi * 1 * 2 * t)
     y(t) = sin(pi * 1 * (2 * t - 0.25))

     f1/f2 = 1/1 	phi = 0.25

     plotted with several adapted cubic bezier-curves
     The plotcurves were calculated by some fancy code. The bezier-curve
     controlpoints are placed on tangents of the function-curve. They are
     furthermore positioned in a way to minimize the average quadratic distance
     between the bezier-curve and the function. This gives an accuracy, so that
     the deviation is in no point greater than 0.00001.

     about: http://commons.wikimedia.org/wiki/Image:Lissajous_1_1_0.25.svg
     source: http://commons.wikimedia.org/
     rights: GNU Free Documentation license,
             Creative Commons Attribution ShareAlike license
  </desc>



  <g id="box"
     style="fill:none;stroke:#000000;stroke-width:1px;
            stroke-linejoin:miter;stroke-linecap:square">
    <rect x="32.5" y="12.5" width="94" height="94" />
    <g transform="translate(33,12.5)">
      <path
         d="M 0,9 h 3.5 M 0,28 h 3.5 M 0,47 h 3.5 M 0,66 h 3.5 M 0,85 h 3.5"/>
      <path
         d="M 93,9 h -3.5 M 93,28 h -3.5 M 93,47 h -3.5 M 93,66 h -3.5
            M 93,85 h -3.5"/>
    </g>
    <g transform="translate(32.5,13)">
      <path
         d="M 9,0 v 3.5 M 28,0 v 3.5 M 47,0 v 3.5 M 66,0 v 3.5 M 85,0 v 3.5"/>
      <path
         d="M 9,93 v -3.5 M 28,93 v -3.5 M 47,93 v -3.5 M 66,93 v -3.5
            M 85,93 v -3.5"/>
    </g>
  </g>

  <g id="graph"
     transform="translate(79.5,59.5) scale(38,-38)"
     style="fill:none;stroke:#ff0000;stroke-width:0.02631579px;
            stroke-linecap:round;stroke-linejoin:round">
    <path id="curve"
       d="M 0.00000,0.70711
C 0.26528,0.89469 0.51963,1.00000 0.70711,1.00000
C 0.89464,1.00000 1.00000,0.89464 1.00000,0.70711
C 1.00000,0.52194 0.89726,0.27146 0.71380,0.00951
C 0.52344,-0.26229 0.26227,-0.52345 -0.00953,-0.71381
C -0.27147,-0.89727 -0.52194,-1.00000 -0.70711,-1.00000
C -0.88313,-1.00000 -0.98718,-0.90714 -0.99889,-0.73959
C -1.01132,-0.56180 -0.91883,-0.31386 -0.74151,-0.04990
C -0.55194,0.23230 -0.28254,0.50732 -0.00000,0.70711 Z"/>
  </g>
</svg>

