<?xml version="1.0" encoding="UTF-8" standalone="no"?>
<svg id="Lissajous_curve"
   version="1.1"
   baseProfile="full"
   xmlns="http://www.w3.org/2000/svg"
   xmlns:xlink="http://www.w3.org/1999/xlink"
   width="160"
   height="120">

  <title>Lissajous_1_3_0.25.svg</title>

  <desc>
     Lissajous-curves

     x(t) = sin(pi * 1 * 2t)
     y(t) = sin(pi * (3 * 2t - 0.25))

     f1/f2 = 1/3 	phi = 0.25

     plotted with several adapted cubic bezier-curves
     The plotcurves were calculated by some fancy code. The bezier-curve
     controlpoints are placed on tangents of the function-curve. They are
     furthermore positioned in a way to minimize the average quadratic distance
     between the bezier-curve and the function. This gives an accuracy, so that
     the deviation is in no point greater than 0.00001.

     about: http://commons.wikimedia.org/wiki/Image:Lissajous_1_3_0.25.svg
     source: http://commons.wikimedia.org/
     rights: GNU Free Documentation license,
             Creative Commons Attribution ShareAlike license
  </desc>



  <g id="box"
     style="fill:none;stroke:#000000;stroke-width:1px;
            stroke-linejoin:miter;stroke-linecap:square">
    <rect x="32.5" y="12.5" width="94" height="94" />
    <g transform="translate(33,12.5)">
      <path
         d="M 0,9 h 3.5 M 0,28 h 3.5 M 0,47 h 3.5 M 0,66 h 3.5 M 0,85 h 3.5"/>
      <path
         d="M 93,9 h -3.5 M 93,28 h -3.5 M 93,47 h -3.5 M 93,66 h -3.5
            M 93,85 h -3.5"/>
    </g>
    <g transform="translate(32.5,13)">
      <path
         d="M 9,0 v 3.5 M 28,0 v 3.5 M 47,0 v 3.5 M 66,0 v 3.5 M 85,0 v 3.5"/>
      <path
         d="M 9,93 v -3.5 M 28,93 v -3.5 M 47,93 v -3.5 M 66,93 v -3.5
            M 85,93 v -3.5"/>
    </g>
  </g>

  <g id="graph"
     transform="translate(79.5,59.5) scale(38,-38)"
     style="fill:none;stroke:#ff0000;stroke-width:0.02631579px;
            stroke-linecap:round;stroke-linejoin:round">
    <path id="curve"
       d="M -0.96593,1.00000
C -0.97336,1.00000 -0.98113,0.98888 -0.98740,0.95274
C -0.99635,0.90120 -1.00000,0.81172 -1.00000,0.70711
C -1.00000,0.48948 -0.98417,0.17411 -0.95468,-0.12091
C -0.93481,-0.31972 -0.89759,-0.62098 -0.83730,-0.81341
C -0.79300,-0.95482 -0.74803,-1.00000 -0.70711,-1.00000
C -0.63261,-1.00000 -0.55385,-0.85024 -0.47343,-0.63974
C -0.34717,-0.30921 -0.21358,0.17959 -0.07294,0.53659
C 0.03457,0.80948 0.14410,1.00000 0.25882,1.00000
C 0.36729,1.00000 0.46573,0.82959 0.56064,0.54024
C 0.67493,0.19180 0.77057,-0.28799 0.84715,-0.62538
C 0.89498,-0.83610 0.93735,-1.00000 0.96593,-1.00000
C 0.97336,-1.00000 0.98113,-0.98888 0.98740,-0.95274
C 0.99635,-0.90120 1.00000,-0.81172 1.00000,-0.70711
C 1.00000,-0.48948 0.98417,-0.17412 0.95468,0.12090
C 0.93481,0.31971 0.89760,0.62097 0.83730,0.81341
C 0.79300,0.95482 0.74803,1.00000 0.70711,1.00000
C 0.63261,1.00000 0.55385,0.85024 0.47344,0.63974
C 0.34717,0.30921 0.21358,-0.17959 0.07294,-0.53659
C -0.03457,-0.80948 -0.14410,-1.00000 -0.25882,-1.00000
C -0.36729,-1.00000 -0.46573,-0.82959 -0.56064,-0.54024
C -0.67493,-0.19180 -0.77057,0.28799 -0.84715,0.62538
C -0.89498,0.83611 -0.93735,1.00000 -0.96593,1.00000 Z"/>
  </g>
</svg>

