<?xml version="1.0" encoding="UTF-8" standalone="no"?>
<svg id="Lissajous_curve"
   version="1.1"
   baseProfile="full"
   xmlns="http://www.w3.org/2000/svg"
   xmlns:xlink="http://www.w3.org/1999/xlink"
   width="160"
   height="120">

  <title>Lissajous_1_3_0.75.svg</title>

  <desc>
     Lissajous-curves

     x(t) = sin(pi * 1 * 2t)
     y(t) = sin(pi * (3 * 2t - 0.75))

     f1/f2 = 1/3 	phi = 0.75

     plotted with several adapted cubic bezier-curves
     The plotcurves were calculated by some fancy code. The bezier-curve
     controlpoints are placed on tangents of the function-curve. They are
     furthermore positioned in a way to minimize the average quadratic distance
     between the bezier-curve and the function. This gives an accuracy, so that
     the deviation is in no point greater than 0.00001.

     about: http://commons.wikimedia.org/wiki/Image:Lissajous_1_3_0.75.svg
     source: http://commons.wikimedia.org/
     rights: GNU Free Documentation license,
             Creative Commons Attribution ShareAlike license
  </desc>



  <g id="box"
     style="fill:none;stroke:#000000;stroke-width:1px;
            stroke-linejoin:miter;stroke-linecap:square">
    <rect x="32.5" y="12.5" width="94" height="94" />
    <g transform="translate(33,12.5)">
      <path
         d="M 0,9 h 3.5 M 0,28 h 3.5 M 0,47 h 3.5 M 0,66 h 3.5 M 0,85 h 3.5"/>
      <path
         d="M 93,9 h -3.5 M 93,28 h -3.5 M 93,47 h -3.5 M 93,66 h -3.5
            M 93,85 h -3.5"/>
    </g>
    <g transform="translate(32.5,13)">
      <path
         d="M 9,0 v 3.5 M 28,0 v 3.5 M 47,0 v 3.5 M 66,0 v 3.5 M 85,0 v 3.5"/>
      <path
         d="M 9,93 v -3.5 M 28,93 v -3.5 M 47,93 v -3.5 M 66,93 v -3.5
            M 85,93 v -3.5"/>
    </g>
  </g>

  <g id="graph"
     transform="translate(79.5,59.5) scale(38,-38)"
     style="fill:none;stroke:#ff0000;stroke-width:0.02631579px;
            stroke-linecap:round;stroke-linejoin:round">
    <path id="curve"
       d="M -0.25882,1.00000
C -0.14409,1.00000 -0.03456,0.80946 0.07296,0.53654
C 0.21359,0.17955 0.34718,-0.30923 0.47344,-0.63975
C 0.55385,-0.85024 0.63262,-1.00000 0.70711,-1.00000
C 0.74803,-1.00000 0.79300,-0.95482 0.83731,-0.81341
C 0.89760,-0.62097 0.93482,-0.31970 0.95469,-0.12089
C 0.98417,0.17412 1.00000,0.48948 1.00000,0.70711
C 1.00000,0.81172 0.99635,0.90120 0.98740,0.95274
C 0.98113,0.98888 0.97336,1.00000 0.96593,1.00000
C 0.93735,1.00000 0.89498,0.83609 0.84715,0.62535
C 0.77057,0.28795 0.67493,-0.19182 0.56064,-0.54025
C 0.46573,-0.82960 0.36729,-1.00000 0.25882,-1.00000
C 0.14409,-1.00000 0.03456,-0.80946 -0.07296,-0.53654
C -0.21360,-0.17954 -0.34718,0.30924 -0.47344,0.63976
C -0.55385,0.85025 -0.63262,1.00000 -0.70711,1.00000
C -0.74803,1.00000 -0.79300,0.95482 -0.83731,0.81341
C -0.89760,0.62097 -0.93482,0.31970 -0.95469,0.12089
C -0.98417,-0.17412 -1.00000,-0.48948 -1.00000,-0.70711
C -1.00000,-0.81172 -0.99635,-0.90120 -0.98740,-0.95274
C -0.98113,-0.98888 -0.97336,-1.00000 -0.96593,-1.00000
C -0.93735,-1.00000 -0.89498,-0.83609 -0.84715,-0.62535
C -0.77057,-0.28796 -0.67493,0.19182 -0.56064,0.54025
C -0.46573,0.82960 -0.36729,1.00000 -0.25882,1.00000
 Z"/>
  </g>
</svg>

