<?xml version="1.0" encoding="UTF-8" standalone="no"?>
<svg id="Lissajous_curve"
   version="1.1"
   baseProfile="full"
   xmlns="http://www.w3.org/2000/svg"
   xmlns:xlink="http://www.w3.org/1999/xlink"
   width="160"
   height="120">

  <title>Lissajous_1_2_0.svg</title>

  <desc>
     Lissajous-curves

     x(t) = sin(pi * (1 * 2t + 0))
     y(t) = sin(pi * 2 * 2t)

     f1/f2 = 1/2 	phi = 0

     plotted with several adapted cubic bezier-curves
     The plotcurves were calculated by some fancy code. The bezier-curve
     controlpoints are placed on tangents of the function-curve. They are
     furthermore positioned in a way to minimize the average quadratic distance
     between the bezier-curve and the function. This gives an accuracy, so that
     the deviation is in no point greater than 0.00001.

     about: http://commons.wikimedia.org/wiki/Image:Lissajous_1_2_0.svg
     source: http://commons.wikimedia.org/
     rights: GNU Free Documentation license,
             Creative Commons Attribution ShareAlike license
  </desc>



  <g id="box"
     style="fill:none;stroke:#000000;stroke-width:1px;
            stroke-linejoin:miter;stroke-linecap:square">
    <rect x="32.5" y="12.5" width="94" height="94" />
    <g transform="translate(33,12.5)">
      <path
         d="M 0,9 h 3.5 M 0,28 h 3.5 M 0,47 h 3.5 M 0,66 h 3.5 M 0,85 h 3.5"/>
      <path
         d="M 93,9 h -3.5 M 93,28 h -3.5 M 93,47 h -3.5 M 93,66 h -3.5
            M 93,85 h -3.5"/>
    </g>
    <g transform="translate(32.5,13)">
      <path
         d="M 9,0 v 3.5 M 28,0 v 3.5 M 47,0 v 3.5 M 66,0 v 3.5 M 85,0 v 3.5"/>
      <path
         d="M 9,93 v -3.5 M 28,93 v -3.5 M 47,93 v -3.5 M 66,93 v -3.5
            M 85,93 v -3.5"/>
    </g>
  </g>

  <g id="graph"
     transform="translate(79.5,59.5) scale(38,-38)"
     style="fill:none;stroke:#ff0000;stroke-width:0.02631579px;
            stroke-linecap:round;stroke-linejoin:round">
    <path id="curve"
       d="M 0.70711,1.00000
C 0.75365,1.00000 0.81451,0.97413 0.87047,0.85693
C 0.95911,0.67130 1.00000,0.32982 1.00000,0.00000
C 1.00000,-0.32982 0.95911,-0.67129 0.87047,-0.85693
C 0.81451,-0.97413 0.75365,-1.00000 0.70711,-1.00000
C 0.60942,-1.00000 0.50264,-0.88561 0.39972,-0.73279
C 0.14113,-0.34887 -0.14113,0.34888 -0.39972,0.73279
C -0.50265,0.88561 -0.60942,1.00000 -0.70711,1.00000
C -0.75365,1.00000 -0.81451,0.97413 -0.87047,0.85693
C -0.95911,0.67130 -1.00000,0.32982 -1.00000,0.00000
C -1.00000,-0.32982 -0.95911,-0.67130 -0.87047,-0.85693
C -0.81451,-0.97413 -0.75365,-1.00000 -0.70711,-1.00000
C -0.60942,-1.00000 -0.50264,-0.88561 -0.39972,-0.73279
C -0.14113,-0.34887 0.14113,0.34888 0.39972,0.73279
C 0.50265,0.88561 0.60942,1.00000 0.70711,1.00000
Z"/>
  </g>
</svg>

